<svg xmlns="http://www.w3.org/2000/svg" xmlns:xlink="http://www.w3.org/1999/xlink" width="204" height="60" viewBox="0 0 204 60">
  <defs>
    <clipPath id="clip-buzz-filling-logo">
      <rect width="204" height="60"/>
    </clipPath>
  </defs>
  <g id="buzz-filling-logo" clip-path="url(#clip-buzz-filling-logo)">
    <g id="Layer_x0020_1" transform="translate(-4 -76)">
      <rect id="Rectangle_2" data-name="Rectangle 2" width="213" height="213" fill="none"/>
      <g id="_2015056413248" transform="translate(20.306 80.361)">
        <path id="Path_1" data-name="Path 1" d="M47,186l10.369,7.777c1.728.864,1.3,1.3,1.3,3.024v18.146c0,2.592,0,3.888,1.3,6.481a8.887,8.887,0,0,0,8.209,5.185c3.456,0,6.481-.864,8.641-3.888a9.747,9.747,0,0,0,1.728-8.641c-3.024-7.777-9.937-8.641-14.258-6.481-.864.432-2.16,1.3-2.16-.432V195.937c9.505-2.592,19.442.432,25.059,9.073,3.024,3.888,3.888,9.937,3.024,14.69a18.156,18.156,0,0,1-5.185,11.233c-4.32,4.753-9.505,7.777-16.85,7.345a25.286,25.286,0,0,1-5.617-.864,19.07,19.07,0,0,1-9.937-6.481c-3.888-4.32-5.185-9.073-5.185-14.69C47.432,206.306,47,196.369,47,186Z" transform="translate(-47 -186)" fill="#ea2024" fill-rule="evenodd"/>
        <path id="Path_2" data-name="Path 2" d="M155,248.146V230h7.345a7.761,7.761,0,0,1,4.753,1.3,4.906,4.906,0,0,1,1.3,3.456,6.141,6.141,0,0,1-.864,2.592,9.443,9.443,0,0,1-2.16,1.3h0a3.275,3.275,0,0,1,1.728.864,1.948,1.948,0,0,1,1.3,1.3,4.632,4.632,0,0,1,.864,2.592,3.3,3.3,0,0,1-.864,2.16,5.206,5.206,0,0,1-2.16,2.16,8.423,8.423,0,0,1-3.456.432Zm3.888-3.024h3.456a3.237,3.237,0,0,0,2.16-.432,2.6,2.6,0,0,0,0-3.888,3.238,3.238,0,0,0-2.16-.432h-3.456Zm0-7.345h3.024c.864,0,1.3-.432,2.16-.864.432-.432.432-.864.432-1.728a2.6,2.6,0,0,0-.432-1.728,3.238,3.238,0,0,0-2.16-.432h-3.024Zm17.714,10.8a3.506,3.506,0,0,1-3.456-1.728,4.906,4.906,0,0,1-1.3-3.456V234.32h3.456v8.209a3.3,3.3,0,0,0,.864,2.16c.432.432.864.432,1.728.432s1.3,0,1.728-.432a3.3,3.3,0,0,0,.864-2.16V234.32h3.888v13.826h-3.888v-2.592a3.674,3.674,0,0,1-1.3,2.16A6.141,6.141,0,0,1,176.6,248.578Zm10.8-.432v-2.16l6.481-8.209v-.432H187.4V234.32h10.8v2.592l-6.049,8.209h6.481v3.024Zm14.258,0v-2.16l6.481-8.209v-.432h-6.481V234.32h11.233v2.592l-6.481,8.209h6.481v3.024Z" transform="translate(-108.339 -210.99)"/>
        <path id="Path_3" data-name="Path 3" d="M299,247.578V229.432h10.8v1.728h-9.073v6.913h8.209v1.3h-8.209v8.209Zm14.258,0V233.753h1.728v13.826Zm.864-15.986a1.509,1.509,0,0,0-.864-.432v-1.728a1.338,1.338,0,0,1,.864-.432c.432,0,.864,0,.864.432.432.432.432.432.432.864s0,.432-.432.864A1.509,1.509,0,0,1,314.122,231.592Zm6.913-2.16v18.146h-1.728V229.432Zm5.617,0v18.146h-1.3V229.432Zm4.32,18.146V233.753H332.7v13.826Zm.864-15.986c-.432,0-.432-.432-.864-.432-.432-.432-.432-.432-.432-.864s0-.432.432-.864.432-.432.864-.432.432,0,.864.432.432.432.432.864,0,.432-.432.864C332.268,231.16,332.268,231.592,331.836,231.592Zm6.481,7.345v8.641h-1.3V233.753h1.3v2.592c.432-.864,1.3-1.3,1.728-1.728a6.141,6.141,0,0,1,2.592-.864,4.906,4.906,0,0,1,3.456,1.3,5.281,5.281,0,0,1,1.3,3.888v8.641h-1.728v-8.641c0-1.3,0-2.16-.864-2.592-.432-.864-1.3-.864-2.592-.864a3.174,3.174,0,0,0-2.592.864A3.734,3.734,0,0,0,338.316,238.937Zm18.578,14.258a8.14,8.14,0,0,1-3.456-.864,5.207,5.207,0,0,1-2.16-2.16l1.728-.864c0,.864.432,1.3,1.3,1.728.432.432,1.3.432,2.592.432s2.16,0,3.024-.864a3.653,3.653,0,0,0,.864-2.592v-3.024h0c-.432.432-.432.864-.864,1.3s-.864.432-1.3.864a3.238,3.238,0,0,1-2.16.432,8.01,8.01,0,0,1-3.024-.864,4.314,4.314,0,0,1-1.728-2.16,10.318,10.318,0,0,1-.864-3.888,8.139,8.139,0,0,1,.864-3.456c.432-1.3.864-2.16,1.728-2.592a8.01,8.01,0,0,1,3.024-.864,3.238,3.238,0,0,1,2.16.432l1.3,1.3c.432.432.432.864.864,1.3h0v-3.024h1.728V248.01a6.244,6.244,0,0,1-.864,3.024c-.432.432-.864,1.3-1.728,1.3A8.011,8.011,0,0,1,356.894,253.195Zm0-7.345a3.922,3.922,0,0,0,3.024-1.3,8.628,8.628,0,0,0,.864-3.888,5.48,5.48,0,0,0-.432-2.592,9.442,9.442,0,0,0-1.3-2.16,3.9,3.9,0,0,0-2.16-.432,5.48,5.48,0,0,0-2.592.432,9.442,9.442,0,0,0-1.3,2.16,5.48,5.48,0,0,0-.432,2.592,5.281,5.281,0,0,0,1.3,3.888C354.3,245.418,355.6,245.85,356.894,245.85Z" transform="translate(-190.124 -210.422)"/>
      </g>
    </g>
  </g>
</svg>
