<svg width="28" height="28" viewBox="0 0 28 28" fill="none" xmlns="http://www.w3.org/2000/svg">
<path d="M14 2.33325C7.58337 2.33325 2.33337 7.58325 2.33337 13.9999C2.33337 20.4166 7.58337 25.6666 14 25.6666C20.4167 25.6666 25.6667 20.4166 25.6667 13.9999C25.6667 7.58325 20.4167 2.33325 14 2.33325ZM14 23.3333C8.85504 23.3333 4.66671 19.1449 4.66671 13.9999C4.66671 8.85492 8.85504 4.66659 14 4.66659C19.145 4.66659 23.3334 8.85492 23.3334 13.9999C23.3334 19.1449 19.145 23.3333 14 23.3333ZM19.355 8.84325L11.6667 16.5316L8.64504 13.5216L7.00004 15.1666L11.6667 19.8333L21 10.4999L19.355 8.84325Z" fill="#41D4A8"/>
</svg>
