<svg width="139" height="73" viewBox="0 0 139 73" fill="none" xmlns="http://www.w3.org/2000/svg">
<path fill-rule="evenodd" clip-rule="evenodd" d="M106.903 11.2147C113.344 12.7507 118.045 16.0452 122.691 19.617C137.924 31.3417 140.979 45.385 126.836 55.7294C104.854 71.7611 60.2907 76.1712 28.9435 63.6725C21.9999 60.9108 12.4747 57.7904 6.61111 49.9567C1.15605 42.6724 2.85737 35.6627 7.2251 29.7359C11.6816 23.6549 18.9135 18.689 24.4812 15.6822C48.8166 2.57216 93.7354 -4.74731 129.819 11.1574C130.563 11.4737 131.395 11.3553 131.717 10.9012C132.04 10.447 131.759 9.83386 131.07 9.52877C93.9264 -6.84127 47.6089 0.547874 22.562 14.0395C15.6325 17.7915 6.20645 24.4862 2.26641 32.5846C-0.407708 38.1235 -0.557899 44.3061 4.16122 50.6619C10.3843 59.0018 20.4832 62.4251 27.8532 65.3612C60.2144 78.2674 106.295 73.7715 128.961 57.2066C144.182 46.0923 140.993 31.0033 124.61 18.399C119.619 14.5338 114.443 11.0194 107.451 9.35273C106.681 9.16933 105.934 9.43806 105.829 9.96119C105.668 10.4731 106.188 11.0425 106.903 11.2147Z" fill="white"/>
</svg>
