<svg width="82" height="82" viewBox="0 0 82 82" fill="none" xmlns="http://www.w3.org/2000/svg">
<path d="M25.6251 68.3333H64.9167L75.1667 78.5833V42.7083C75.1667 38.95 72.0918 35.875 68.3334 35.875H25.6251C21.8667 35.875 18.7917 38.95 18.7917 42.7083V61.5C18.7917 65.2583 21.8667 68.3333 25.6251 68.3333Z" fill="#F87177"/>
<path d="M49.2001 56.0329H43.0501L41.8543 59.6204H38.0959L44.4168 42.5371H47.6626L53.9834 59.6204H50.2251L49.2001 56.0329ZM43.9043 53.2996H48.1751L46.1251 46.8079L43.9043 53.2996Z" fill="#ffffff"/>
<path d="M56.3749 42.708H17.0833L6.83325 52.958V13.6663C6.83325 9.90801 9.90825 6.83301 13.6666 6.83301H56.3749C60.1333 6.83301 63.2083 9.90801 63.2083 13.6663V35.8747C63.2083 39.633 60.1333 42.708 56.3749 42.708Z" fill="#EA580C"/>
<path d="M43.3917 24.2583C43.3917 25.9666 43.0501 27.3333 42.5376 28.5291C42.0251 29.7249 41.3417 30.7499 40.3167 31.4333L43.2209 33.6541L41.0001 35.7041L37.2417 32.7999C36.9001 32.7999 36.3876 32.9708 35.8751 32.9708C34.8501 32.9708 33.8251 32.7999 32.8001 32.4583C31.9459 32.1166 31.0917 31.4333 30.4084 30.7499C29.7251 30.0666 29.2126 29.0416 28.8709 28.0166C28.5292 26.9916 28.3584 25.7958 28.3584 24.4291V23.7458C28.3584 22.3791 28.5292 21.1833 28.8709 20.1583C29.2126 19.1333 29.7251 18.1083 30.4084 17.4249C31.0917 16.7416 31.7751 16.0583 32.8001 15.7166C33.6542 15.3749 34.6792 15.2041 35.8751 15.2041C36.9001 15.2041 37.9251 15.3749 38.9501 15.7166C39.8042 16.0583 40.6584 16.7416 41.3417 17.4249C42.0251 18.1083 42.5376 19.1333 42.8792 20.1583C43.2209 21.1833 43.3917 22.3791 43.3917 23.7458V24.2583ZM39.6334 23.4041C39.6334 21.5249 39.2917 20.1583 38.6084 19.3041C37.9251 18.2791 37.0709 17.9374 35.8751 17.9374C34.6792 17.9374 33.6542 18.4499 33.1417 19.3041C32.4584 20.3291 32.1167 21.6958 32.1167 23.4041V24.2583C32.1167 25.1124 32.2876 25.9666 32.4584 26.6499C32.6292 27.3333 32.8001 28.0166 33.1417 28.3583C33.4834 28.8708 33.8251 29.2124 34.3376 29.3833C34.8501 29.5541 35.3626 29.7249 35.8751 29.7249C37.0709 29.7249 38.0959 29.2124 38.6084 28.3583C39.2917 27.3333 39.6334 25.9666 39.6334 24.0874V23.4041Z" fill="white"/>
</svg>
