<svg width="28" height="28" viewBox="0 0 28 28" fill="none" xmlns="http://www.w3.org/2000/svg">
<path d="M9.79992 19.8333L13.9999 15.6333L18.1999 19.8333L19.8333 18.1999L15.6333 13.9999L19.8333 9.79992L18.1999 8.16658L13.9999 12.3666L9.79992 8.16658L8.16659 9.79992L12.3666 13.9999L8.16659 18.1999L9.79992 19.8333ZM13.9999 25.6666C12.386 25.6666 10.8694 25.3601 9.44992 24.7473C8.03048 24.1344 6.79575 23.3033 5.74575 22.2541C4.69575 21.2049 3.8647 19.9701 3.25259 18.5499C2.64048 17.1297 2.33403 15.613 2.33325 13.9999C2.33248 12.3868 2.63892 10.8701 3.25259 9.44992C3.86625 8.0297 4.69731 6.79497 5.74575 5.74575C6.7942 4.69653 8.02892 3.86547 9.44992 3.25259C10.8709 2.6397 12.3876 2.33325 13.9999 2.33325C15.6123 2.33325 17.1289 2.6397 18.5499 3.25259C19.9709 3.86547 21.2056 4.69653 22.2541 5.74575C23.3025 6.79497 24.134 8.0297 24.7484 9.44992C25.3629 10.8701 25.6689 12.3868 25.6666 13.9999C25.6643 15.613 25.3578 17.1297 24.7473 18.5499C24.1367 19.9701 23.3056 21.2049 22.2541 22.2541C21.2025 23.3033 19.9678 24.1348 18.5499 24.7484C17.132 25.3621 15.6154 25.6681 13.9999 25.6666ZM13.9999 23.3333C16.6055 23.3333 18.8124 22.4291 20.6208 20.6208C22.4291 18.8124 23.3333 16.6055 23.3333 13.9999C23.3333 11.3944 22.4291 9.18742 20.6208 7.37909C18.8124 5.57075 16.6055 4.66659 13.9999 4.66659C11.3944 4.66659 9.18742 5.57075 7.37909 7.37909C5.57075 9.18742 4.66659 11.3944 4.66659 13.9999C4.66659 16.6055 5.57075 18.8124 7.37909 20.6208C9.18742 22.4291 11.3944 23.3333 13.9999 23.3333Z" fill="#EA2024"/>
</svg>
