<svg width="40" height="40" viewBox="0 0 40 40" fill="none" xmlns="http://www.w3.org/2000/svg">
<path d="M35.0001 13.333C32.5834 13.333 31.2334 15.733 31.7834 17.5163L25.8667 23.4497C25.3667 23.2997 24.6334 23.2997 24.1334 23.4497L19.8834 19.1997C20.4501 17.4163 19.1001 14.9997 16.6667 14.9997C14.2501 14.9997 12.8834 17.3997 13.4501 19.1997L5.85008 26.783C4.06675 26.233 1.66675 27.583 1.66675 29.9997C1.66675 31.833 3.16675 33.333 5.00008 33.333C7.41675 33.333 8.76675 30.933 8.21675 29.1497L15.8001 21.5497C16.3001 21.6997 17.0334 21.6997 17.5334 21.5497L21.7834 25.7997C21.2167 27.583 22.5667 29.9997 25.0001 29.9997C27.4167 29.9997 28.7834 27.5997 28.2167 25.7997L34.1501 19.883C35.9334 20.433 38.3334 19.083 38.3334 16.6663C38.3334 14.833 36.8334 13.333 35.0001 13.333Z" fill="#3D3D3D"/>
<path d="M25.0001 15L26.5667 11.55L30.0001 10L26.5667 8.45L25.0001 5L23.4667 8.45L20.0001 10L23.4667 11.55L25.0001 15ZM5.83341 18.3333L6.66675 15L10.0001 14.1667L6.66675 13.3333L5.83341 10L5.00008 13.3333L1.66675 14.1667L5.00008 15L5.83341 18.3333Z" fill="#3D3D3D"/>
</svg>
