<?xml version="1.0" encoding="UTF-8"?>
<!DOCTYPE svg PUBLIC "-//W3C//DTD SVG 1.1//EN" "http://www.w3.org/Graphics/SVG/1.1/DTD/svg11.dtd">
<!-- Creator: CorelDRAW X7 -->
<svg xmlns="http://www.w3.org/2000/svg" xml:space="preserve" width="8.33333in" height="8.33333in" version="1.1" style="shape-rendering:geometricPrecision; text-rendering:geometricPrecision; image-rendering:optimizeQuality; fill-rule:evenodd; clip-rule:evenodd"
viewBox="0 0 1691 1691"
 xmlns:xlink="http://www.w3.org/1999/xlink">
 <defs>
  <style type="text/css">
   <![CDATA[
    .fil0 {fill:none}
    .fil1 {fill:#EA580C}
    .fil2 {fill:black;fill-rule:nonzero}
   ]]>
  </style>
 </defs>
 <g id="Layer_x0020_1">
  <metadata id="CorelCorpID_0Corel-Layer"/>
  <rect class="fil0" width="1691" height="1691"/>
  <polygon class="fil1" points="365,889 366,973 300,875 300,805 367,805 300,755 300,718 505,718 505,803 392,803 505,889 "/>
  <path class="fil2" d="M588 835l99 0 0 28 -99 0 0 -28zm102 -63l0 28 -101 0 15 -17 0 137 -30 0 0 -148 116 0zm74 151c-12,0 -23,-2 -33,-7 -10,-5 -17,-12 -23,-21 -5,-9 -8,-19 -8,-31 0,-12 3,-22 8,-31 6,-9 13,-16 23,-21 9,-5 21,-7 33,-7 13,0 25,2 34,7 10,5 17,12 23,21 5,9 8,19 8,31 0,12 -3,22 -8,31 -6,9 -13,16 -23,21 -9,5 -21,7 -34,7zm0 -25c8,0 14,-1 19,-4 5,-3 9,-7 11,-12 3,-5 4,-11 4,-18 0,-7 -1,-13 -4,-18 -3,-5 -6,-9 -11,-12 -5,-3 -11,-4 -19,-5 -6,1 -12,2 -17,5 -5,3 -9,7 -12,12 -3,5 -4,11 -4,18 0,7 1,13 4,18 3,5 7,9 12,12 5,3 11,4 17,4zm126 25c-9,0 -18,-2 -24,-6 -7,-4 -12,-11 -16,-19 -3,-7 -5,-17 -5,-28l0 -63 30 0 0 58c0,10 2,18 7,23 4,5 10,8 18,8 6,0 11,-1 15,-4 5,-3 8,-7 10,-12 2,-5 4,-11 4,-18l9 6c-1,12 -4,22 -8,30 -5,8 -10,14 -17,19 -7,4 -15,6 -23,6zm45 -3l-6 -43 0 -70 30 0 0 75 6 38 -30 0zm43 -113l30 0 7 43 0 70 -30 0 0 -74 -7 -39zm76 -3c10,0 18,3 25,7 7,4 12,10 16,18 4,8 5,18 5,29l0 62 -30 0 0 -57c0,-11 -2,-18 -7,-24 -4,-5 -10,-7 -19,-7 -6,0 -11,1 -15,4 -5,3 -8,7 -11,12 -2,5 -3,11 -3,18l-10 -6c1,-12 4,-22 9,-30 4,-8 10,-15 17,-19 7,-4 15,-7 23,-7zm163 116l-5 -42 6 -14 -5 -16 8 -80 31 0 -10 94 6 58 -31 0zm7 -56c-2,12 -5,22 -10,31 -6,9 -12,16 -20,21 -8,5 -16,7 -26,7 -10,0 -19,-2 -27,-7 -7,-5 -13,-12 -18,-21 -4,-9 -6,-19 -6,-31 0,-12 2,-22 6,-31 5,-9 11,-16 18,-21 8,-5 17,-8 27,-8 10,0 18,3 26,8 8,5 14,12 20,21 5,8 8,19 10,31zm-76 0c0,7 1,12 3,17 3,5 6,9 11,12 4,3 9,4 15,4 5,0 11,-1 16,-4 5,-3 9,-7 13,-12 4,-5 7,-10 9,-17 -2,-7 -5,-13 -9,-18 -4,-5 -8,-9 -13,-12 -5,-2 -11,-4 -16,-4 -6,0 -11,2 -15,4 -5,3 -8,7 -11,12 -2,5 -3,11 -3,18zm179 59c-13,0 -24,-2 -34,-7 -9,-5 -17,-12 -22,-21 -6,-9 -8,-19 -8,-31 -1,-12 2,-22 8,-31 5,-9 13,-16 22,-21 10,-5 21,-7 34,-7 13,0 24,2 34,7 9,5 17,12 22,21 6,9 8,19 8,31 0,12 -2,22 -8,31 -5,9 -13,16 -22,21 -10,5 -21,7 -34,7zm0 -25c7,0 13,-1 18,-4 5,-3 9,-7 12,-12 2,-5 4,-11 4,-18 0,-7 -2,-13 -4,-18 -3,-5 -7,-9 -12,-12 -5,-3 -11,-4 -18,-5 -7,1 -13,2 -18,5 -5,3 -9,7 -12,12 -2,5 -4,11 -4,18 0,7 2,13 4,18 3,5 7,9 12,12 5,3 11,4 18,4z"/>
 </g>
</svg>
