<svg xmlns="http://www.w3.org/2000/svg" xmlns:xlink="http://www.w3.org/1999/xlink" width="5524" zoomAndPan="magnify" viewBox="0 0 4143 1199.999942" height="1600" preserveAspectRatio="xMidYMid meet" version="1.0"><defs><g/></defs><g fill="#000000" fill-opacity="1"><g transform="translate(565.827649, 859.301574)"><g><path d="M 74.03125 0 L 74.03125 -820.09375 L 219.828125 -820.09375 L 219.828125 0 Z M 74.03125 0 "/></g></g></g><g fill="#000000" fill-opacity="1"><g transform="translate(774.163729, 859.301574)"><g><path d="M 348.53125 13.671875 C 291.582031 13.671875 241.085938 1.519531 197.046875 -22.78125 C 153.003906 -47.082031 118.453125 -81.253906 93.390625 -125.296875 C 68.335938 -169.335938 55.8125 -220.210938 55.8125 -277.921875 C 55.8125 -336.390625 68.148438 -388.40625 92.828125 -433.96875 C 117.503906 -479.53125 151.671875 -515.03125 195.328125 -540.46875 C 238.992188 -565.90625 290.441406 -578.625 349.671875 -578.625 C 405.109375 -578.625 454.085938 -566.472656 496.609375 -542.171875 C 539.128906 -517.867188 572.347656 -484.644531 596.265625 -442.5 C 620.191406 -400.363281 632.15625 -353.476562 632.15625 -301.84375 C 632.15625 -293.488281 631.960938 -284.753906 631.578125 -275.640625 C 631.203125 -266.523438 630.632812 -257.035156 629.875 -247.171875 L 200.46875 -247.171875 C 203.5 -203.128906 218.875 -168.578125 246.59375 -143.515625 C 274.3125 -118.453125 307.914062 -105.921875 347.40625 -105.921875 C 377.019531 -105.921875 401.882812 -112.566406 422 -125.859375 C 442.125 -139.148438 457.125 -156.425781 467 -177.6875 L 615.0625 -177.6875 C 604.4375 -142 586.785156 -109.535156 562.109375 -80.296875 C 537.429688 -51.066406 507.054688 -28.097656 470.984375 -11.390625 C 434.910156 5.316406 394.09375 13.671875 348.53125 13.671875 Z M 349.671875 -460.15625 C 313.984375 -460.15625 282.472656 -450.09375 255.140625 -429.96875 C 227.804688 -409.851562 210.34375 -379.289062 202.75 -338.28125 L 484.078125 -338.28125 C 481.804688 -375.488281 468.140625 -405.101562 443.078125 -427.125 C 418.015625 -449.144531 386.878906 -460.15625 349.671875 -460.15625 Z M 349.671875 -460.15625 "/></g></g></g><g fill="#000000" fill-opacity="1"><g transform="translate(1368.518563, 859.301574)"><g><path d="M 348.53125 13.671875 C 291.582031 13.671875 241.085938 1.519531 197.046875 -22.78125 C 153.003906 -47.082031 118.453125 -81.253906 93.390625 -125.296875 C 68.335938 -169.335938 55.8125 -220.210938 55.8125 -277.921875 C 55.8125 -336.390625 68.148438 -388.40625 92.828125 -433.96875 C 117.503906 -479.53125 151.671875 -515.03125 195.328125 -540.46875 C 238.992188 -565.90625 290.441406 -578.625 349.671875 -578.625 C 405.109375 -578.625 454.085938 -566.472656 496.609375 -542.171875 C 539.128906 -517.867188 572.347656 -484.644531 596.265625 -442.5 C 620.191406 -400.363281 632.15625 -353.476562 632.15625 -301.84375 C 632.15625 -293.488281 631.960938 -284.753906 631.578125 -275.640625 C 631.203125 -266.523438 630.632812 -257.035156 629.875 -247.171875 L 200.46875 -247.171875 C 203.5 -203.128906 218.875 -168.578125 246.59375 -143.515625 C 274.3125 -118.453125 307.914062 -105.921875 347.40625 -105.921875 C 377.019531 -105.921875 401.882812 -112.566406 422 -125.859375 C 442.125 -139.148438 457.125 -156.425781 467 -177.6875 L 615.0625 -177.6875 C 604.4375 -142 586.785156 -109.535156 562.109375 -80.296875 C 537.429688 -51.066406 507.054688 -28.097656 470.984375 -11.390625 C 434.910156 5.316406 394.09375 13.671875 348.53125 13.671875 Z M 349.671875 -460.15625 C 313.984375 -460.15625 282.472656 -450.09375 255.140625 -429.96875 C 227.804688 -409.851562 210.34375 -379.289062 202.75 -338.28125 L 484.078125 -338.28125 C 481.804688 -375.488281 468.140625 -405.101562 443.078125 -427.125 C 418.015625 -449.144531 386.878906 -460.15625 349.671875 -460.15625 Z M 349.671875 -460.15625 "/></g></g></g><g fill="#000000" fill-opacity="1"><g transform="translate(1962.873337, 859.301574)"><g><path d="M 313.234375 -168.578125 C 285.890625 -168.578125 260.453125 -171.613281 236.921875 -177.6875 L 194.765625 -135.546875 C 207.679688 -128.710938 225.148438 -123.015625 247.171875 -118.453125 C 269.191406 -113.898438 304.878906 -109.347656 354.234375 -104.796875 C 429.410156 -97.953125 484.082031 -80.101562 518.25 -51.25 C 552.425781 -22.394531 569.515625 17.46875 569.515625 68.34375 C 569.515625 101.75 560.398438 133.445312 542.171875 163.4375 C 523.941406 193.4375 495.84375 217.738281 457.875 236.34375 C 419.914062 254.945312 371.320312 264.25 312.09375 264.25 C 231.601562 264.25 166.675781 249.25 117.3125 219.25 C 67.957031 189.257812 43.28125 144.269531 43.28125 84.28125 C 43.28125 33.40625 67.957031 -10.632812 117.3125 -47.84375 C 102.125 -54.675781 89.023438 -61.890625 78.015625 -69.484375 C 67.003906 -77.078125 57.328125 -85.050781 48.984375 -93.40625 L 48.984375 -119.59375 L 148.078125 -224.390625 C 104.035156 -263.109375 82.015625 -312.84375 82.015625 -373.59375 C 82.015625 -411.5625 91.316406 -446.113281 109.921875 -477.25 C 128.523438 -508.382812 154.910156 -533.0625 189.078125 -551.28125 C 223.242188 -569.507812 264.628906 -578.625 313.234375 -578.625 C 345.117188 -578.625 374.734375 -574.066406 402.078125 -564.953125 L 616.203125 -564.953125 L 616.203125 -476.109375 L 519.390625 -469.28125 C 534.578125 -440.414062 542.171875 -408.519531 542.171875 -373.59375 C 542.171875 -335.625 533.054688 -301.070312 514.828125 -269.9375 C 496.609375 -238.8125 470.222656 -214.132812 435.671875 -195.90625 C 401.117188 -177.6875 360.304688 -168.578125 313.234375 -168.578125 Z M 313.234375 -280.203125 C 342.847656 -280.203125 367.332031 -288.171875 386.6875 -304.109375 C 406.050781 -320.054688 415.734375 -342.835938 415.734375 -372.453125 C 415.734375 -402.066406 406.050781 -424.847656 386.6875 -440.796875 C 367.332031 -456.742188 342.847656 -464.71875 313.234375 -464.71875 C 282.097656 -464.71875 257.035156 -456.742188 238.046875 -440.796875 C 219.066406 -424.847656 209.578125 -402.066406 209.578125 -372.453125 C 209.578125 -342.835938 219.066406 -320.054688 238.046875 -304.109375 C 257.035156 -288.171875 282.097656 -280.203125 313.234375 -280.203125 Z M 176.546875 69.484375 C 176.546875 97.578125 189.644531 118.644531 215.84375 132.6875 C 242.039062 146.738281 274.125 153.765625 312.09375 153.765625 C 348.539062 153.765625 378.15625 146.359375 400.9375 131.546875 C 423.71875 116.742188 435.109375 96.816406 435.109375 71.765625 C 435.109375 51.253906 427.703125 34.164062 412.890625 20.5 C 398.085938 6.832031 368.664062 -1.519531 324.625 -4.5625 C 293.488281 -6.832031 264.628906 -10.25 238.046875 -14.8125 C 216.023438 -2.65625 200.269531 10.632812 190.78125 25.0625 C 181.289062 39.488281 176.546875 54.296875 176.546875 69.484375 Z M 176.546875 69.484375 "/></g></g></g><g fill="#000000" fill-opacity="1"><g transform="translate(2524.206082, 859.301574)"><g><path d="M 268.8125 13.671875 C 220.207031 13.671875 180.335938 5.890625 149.203125 -9.671875 C 118.078125 -25.242188 94.921875 -45.9375 79.734375 -71.75 C 64.546875 -97.570312 56.953125 -126.050781 56.953125 -157.1875 C 56.953125 -209.582031 77.453125 -252.101562 118.453125 -284.75 C 159.460938 -317.40625 220.972656 -333.734375 302.984375 -333.734375 L 446.5 -333.734375 L 446.5 -347.40625 C 446.5 -386.125 435.488281 -414.59375 413.46875 -432.8125 C 391.445312 -451.039062 364.109375 -460.15625 331.453125 -460.15625 C 301.835938 -460.15625 276.019531 -453.128906 254 -439.078125 C 231.976562 -425.035156 218.3125 -404.347656 213 -377.015625 L 70.625 -377.015625 C 74.414062 -418.015625 88.269531 -453.703125 112.1875 -484.078125 C 136.113281 -514.453125 167.054688 -537.800781 205.015625 -554.125 C 242.984375 -570.457031 285.507812 -578.625 332.59375 -578.625 C 413.082031 -578.625 476.484375 -558.5 522.796875 -518.25 C 569.117188 -478.007812 592.28125 -421.0625 592.28125 -347.40625 L 592.28125 0 L 468.140625 0 L 454.46875 -91.125 C 437.757812 -60.75 414.40625 -35.6875 384.40625 -15.9375 C 354.414062 3.800781 315.882812 13.671875 268.8125 13.671875 Z M 301.84375 -100.234375 C 343.601562 -100.234375 376.0625 -113.898438 399.21875 -141.234375 C 422.382812 -168.578125 437.003906 -202.367188 443.078125 -242.609375 L 318.921875 -242.609375 C 280.191406 -242.609375 252.472656 -235.582031 235.765625 -221.53125 C 219.066406 -207.488281 210.71875 -190.21875 210.71875 -169.71875 C 210.71875 -147.695312 219.066406 -130.609375 235.765625 -118.453125 C 252.472656 -106.304688 274.5 -100.234375 301.84375 -100.234375 Z M 301.84375 -100.234375 "/></g></g></g><g fill="#000000" fill-opacity="1"><g transform="translate(3094.648357, 859.301574)"><g><path d="M 74.03125 0 L 74.03125 -820.09375 L 219.828125 -820.09375 L 219.828125 0 Z M 74.03125 0 "/></g></g></g><g fill="#ea2024" fill-opacity="1"><g transform="translate(3303.05729, 859.301574)"><g><path d="M 136.6875 7.96875 C 110.101562 7.96875 88.269531 -0.378906 71.1875 -17.078125 C 54.101562 -33.785156 45.5625 -53.910156 45.5625 -77.453125 C 45.5625 -101.753906 54.101562 -122.253906 71.1875 -138.953125 C 88.269531 -155.660156 110.101562 -164.015625 136.6875 -164.015625 C 163.257812 -164.015625 185.085938 -155.660156 202.171875 -138.953125 C 219.253906 -122.253906 227.796875 -101.753906 227.796875 -77.453125 C 227.796875 -53.910156 219.253906 -33.785156 202.171875 -17.078125 C 185.085938 -0.378906 163.257812 7.96875 136.6875 7.96875 Z M 136.6875 7.96875 "/></g></g></g></svg>