<svg width="390" height="634" viewBox="0 0 390 634" fill="none" xmlns="http://www.w3.org/2000/svg">
<g clip-path="url(#clip0_175_1607)">
<rect width="390" height="649" transform="translate(0 -15)" fill="white"/>
<path d="M26.1477 150.364V162H28.1705V153.989H28.2784L31.4943 161.966H33.0057L36.2216 154.006H36.3295V162H38.3523V150.364H35.7727L32.3182 158.795H32.1818L28.7273 150.364H26.1477ZM41.8352 165.273C43.4375 165.273 44.3636 164.449 44.858 163.057L48.3636 153.284L46.1648 153.273L44.1477 159.864H44.0568L42.0455 153.273H39.8636L43.0284 162.182L42.8523 162.653C42.4716 163.648 41.8693 163.716 40.9716 163.455L40.4943 165.057C40.7727 165.17 41.2727 165.273 41.8352 165.273ZM63.8111 154.29C63.4531 151.705 61.4645 150.205 58.8849 150.205C55.8452 150.205 53.5554 152.42 53.5554 156.182C53.5554 159.938 55.8168 162.159 58.8849 162.159C61.652 162.159 63.4872 160.369 63.8111 158.148L61.6861 158.136C61.419 159.5 60.3054 160.267 58.9134 160.267C57.027 160.267 55.6747 158.852 55.6747 156.182C55.6747 153.557 57.0156 152.097 58.919 152.097C60.3338 152.097 61.4418 152.898 61.6861 154.29H63.8111ZM68.1619 162.176C69.5312 162.176 70.3494 161.534 70.7244 160.801H70.7926V162H72.7699V156.159C72.7699 153.852 70.8892 153.159 69.2244 153.159C67.3892 153.159 65.9801 153.977 65.5256 155.568L67.446 155.841C67.6506 155.244 68.2301 154.733 69.2358 154.733C70.1903 154.733 70.7131 155.222 70.7131 156.08V156.114C70.7131 156.705 70.0938 156.733 68.554 156.898C66.8608 157.08 65.2415 157.585 65.2415 159.551C65.2415 161.267 66.4972 162.176 68.1619 162.176ZM68.696 160.665C67.8381 160.665 67.2244 160.273 67.2244 159.517C67.2244 158.727 67.9119 158.398 68.8324 158.267C69.3722 158.193 70.4517 158.057 70.7188 157.841V158.869C70.7188 159.841 69.9347 160.665 68.696 160.665ZM74.8381 162H76.8949V156.869C76.8949 155.761 77.7301 154.977 78.8608 154.977C79.2074 154.977 79.6392 155.04 79.8153 155.097V153.205C79.6278 153.17 79.304 153.148 79.0767 153.148C78.0767 153.148 77.2415 153.716 76.9233 154.727H76.8324V153.273H74.8381V162ZM84.0611 162.153C85.5611 162.153 86.2372 161.261 86.5611 160.625H86.6861V162H88.7088V150.364H86.6463V154.716H86.5611C86.2486 154.085 85.6065 153.159 84.0668 153.159C82.0497 153.159 80.4645 154.739 80.4645 157.648C80.4645 160.523 82.0043 162.153 84.0611 162.153ZM84.6349 160.466C83.277 160.466 82.5611 159.273 82.5611 157.636C82.5611 156.011 83.2656 154.847 84.6349 154.847C85.9588 154.847 86.6861 155.943 86.6861 157.636C86.6861 159.33 85.9474 160.466 84.6349 160.466ZM97.7983 155.58C97.5142 154.102 96.3324 153.159 94.2869 153.159C92.1847 153.159 90.7528 154.193 90.7585 155.807C90.7528 157.08 91.5369 157.92 93.2131 158.267L94.7017 158.58C95.5028 158.756 95.8778 159.08 95.8778 159.574C95.8778 160.17 95.2301 160.619 94.2528 160.619C93.3097 160.619 92.696 160.21 92.5199 159.426L90.5142 159.619C90.7699 161.222 92.1165 162.17 94.2585 162.17C96.4403 162.17 97.9801 161.04 97.9858 159.386C97.9801 158.142 97.179 157.381 95.5312 157.023L94.0426 156.705C93.1562 156.506 92.804 156.199 92.8097 155.693C92.804 155.102 93.4574 154.693 94.3153 154.693C95.2642 154.693 95.7642 155.21 95.9233 155.784L97.7983 155.58Z" fill="#343C6A"/>
<path d="M309.944 154.617H311.719C311.684 152.897 310.217 151.679 308.05 151.679C305.912 151.679 304.306 152.882 304.311 154.682C304.311 156.143 305.35 156.984 307.026 157.416L308.184 157.714C309.283 157.993 310.009 158.336 310.013 159.126C310.009 159.996 309.183 160.578 307.98 160.578C306.827 160.578 305.932 160.061 305.857 158.992H304.043C304.117 161.016 305.624 162.154 307.995 162.154C310.436 162.154 311.853 160.936 311.858 159.141C311.853 157.376 310.396 156.571 308.865 156.208L307.911 155.969C307.075 155.771 306.17 155.418 306.18 154.567C306.185 153.802 306.871 153.24 308.025 153.24C309.124 153.24 309.849 153.752 309.944 154.617ZM316.803 162.149C318.583 162.149 319.806 161.279 320.124 159.952L318.444 159.763C318.2 160.409 317.604 160.747 316.828 160.747C315.665 160.747 314.894 159.982 314.879 158.674H320.199V158.122C320.199 155.442 318.588 154.264 316.709 154.264C314.521 154.264 313.095 155.87 313.095 158.227C313.095 160.623 314.502 162.149 316.803 162.149ZM314.884 157.461C314.939 156.487 315.66 155.666 316.734 155.666C317.768 155.666 318.464 156.422 318.474 157.461H314.884ZM325.102 162.149C326.882 162.149 328.105 161.279 328.423 159.952L326.743 159.763C326.499 160.409 325.903 160.747 325.127 160.747C323.964 160.747 323.193 159.982 323.178 158.674H328.498V158.122C328.498 155.442 326.887 154.264 325.008 154.264C322.82 154.264 321.393 155.87 321.393 158.227C321.393 160.623 322.8 162.149 325.102 162.149ZM323.183 157.461C323.238 156.487 323.959 155.666 325.033 155.666C326.067 155.666 326.763 156.422 326.773 157.461H323.183ZM334.88 162L335.72 159.489H339.548L340.394 162H342.362L338.773 151.818H336.496L332.911 162H334.88ZM336.218 158.008L337.595 153.906H337.674L339.051 158.008H336.218ZM345.424 151.818H343.624V162H345.424V151.818ZM349.074 151.818H347.274V162H349.074V151.818Z" fill="#343C6A"/>
<path d="M26.1477 382H28.2557V377.739H30.4034L32.6875 382H35.0398L32.5227 377.386C33.892 376.835 34.6136 375.665 34.6136 374.085C34.6136 371.864 33.1818 370.364 30.5114 370.364H26.1477V382ZM28.2557 375.989V372.125H30.1875C31.7614 372.125 32.4659 372.847 32.4659 374.085C32.4659 375.324 31.7614 375.989 30.1989 375.989H28.2557ZM40.2017 382.17C42.2358 382.17 43.6335 381.176 43.9972 379.659L42.0767 379.443C41.7983 380.182 41.1165 380.568 40.2301 380.568C38.9006 380.568 38.0199 379.693 38.0028 378.199H44.0824V377.568C44.0824 374.506 42.2415 373.159 40.0938 373.159C37.5938 373.159 35.9631 374.994 35.9631 377.688C35.9631 380.426 37.571 382.17 40.2017 382.17ZM38.0085 376.812C38.071 375.699 38.8949 374.761 40.1222 374.761C41.304 374.761 42.0994 375.625 42.1108 376.812H38.0085ZM49.6293 382.17C51.8224 382.17 53.2202 380.869 53.3679 379.017H51.402C51.2259 379.955 50.5497 380.494 49.6463 380.494C48.3622 380.494 47.5327 379.42 47.5327 377.636C47.5327 375.875 48.3793 374.818 49.6463 374.818C50.6349 374.818 51.2429 375.455 51.402 376.295H53.3679C53.2259 374.403 51.7486 373.159 49.6179 373.159C47.0611 373.159 45.4474 375.006 45.4474 377.67C45.4474 380.312 47.0213 382.17 49.6293 382.17ZM58.9205 382.17C60.9545 382.17 62.3523 381.176 62.7159 379.659L60.7955 379.443C60.517 380.182 59.8352 380.568 58.9489 380.568C57.6193 380.568 56.7386 379.693 56.7216 378.199H62.8011V377.568C62.8011 374.506 60.9602 373.159 58.8125 373.159C56.3125 373.159 54.6818 374.994 54.6818 377.688C54.6818 380.426 56.2898 382.17 58.9205 382.17ZM56.7273 376.812C56.7898 375.699 57.6136 374.761 58.8409 374.761C60.0227 374.761 60.8182 375.625 60.8295 376.812H56.7273ZM66.598 376.886C66.598 375.625 67.3594 374.898 68.4446 374.898C69.5071 374.898 70.1435 375.597 70.1435 376.761V382H72.2003V376.443C72.206 374.352 71.0128 373.159 69.2116 373.159C67.9048 373.159 67.0071 373.784 66.6094 374.756H66.5071V373.273H64.5412V382H66.598V376.886ZM78.6491 373.273H76.9276V371.182H74.8707V373.273H73.6321V374.864H74.8707V379.716C74.8594 381.358 76.0526 382.165 77.598 382.119C78.1832 382.102 78.5866 381.989 78.8082 381.915L78.4616 380.307C78.348 380.335 78.1151 380.386 77.8594 380.386C77.3423 380.386 76.9276 380.205 76.9276 379.375V374.864H78.6491V373.273ZM83.9176 372.131H87.5142V382H89.6051V372.131H93.2017V370.364H83.9176V372.131ZM93.9943 382H96.0511V376.869C96.0511 375.761 96.8864 374.977 98.017 374.977C98.3636 374.977 98.7955 375.04 98.9716 375.097V373.205C98.7841 373.17 98.4602 373.148 98.233 373.148C97.233 373.148 96.3977 373.716 96.0795 374.727H95.9886V373.273H93.9943V382ZM102.678 382.176C104.047 382.176 104.865 381.534 105.24 380.801H105.308V382H107.286V376.159C107.286 373.852 105.405 373.159 103.74 373.159C101.905 373.159 100.496 373.977 100.041 375.568L101.962 375.841C102.166 375.244 102.746 374.733 103.751 374.733C104.706 374.733 105.229 375.222 105.229 376.08V376.114C105.229 376.705 104.609 376.733 103.07 376.898C101.376 377.08 99.7571 377.585 99.7571 379.551C99.7571 381.267 101.013 382.176 102.678 382.176ZM103.212 380.665C102.354 380.665 101.74 380.273 101.74 379.517C101.74 378.727 102.428 378.398 103.348 378.267C103.888 378.193 104.967 378.057 105.234 377.841V378.869C105.234 379.841 104.45 380.665 103.212 380.665ZM111.411 376.886C111.411 375.625 112.172 374.898 113.257 374.898C114.32 374.898 114.956 375.597 114.956 376.761V382H117.013V376.443C117.018 374.352 115.825 373.159 114.024 373.159C112.717 373.159 111.82 373.784 111.422 374.756H111.32V373.273H109.354V382H111.411V376.886ZM126.001 375.58C125.717 374.102 124.536 373.159 122.49 373.159C120.388 373.159 118.956 374.193 118.962 375.807C118.956 377.08 119.74 377.92 121.416 378.267L122.905 378.58C123.706 378.756 124.081 379.08 124.081 379.574C124.081 380.17 123.433 380.619 122.456 380.619C121.513 380.619 120.899 380.21 120.723 379.426L118.717 379.619C118.973 381.222 120.32 382.17 122.462 382.17C124.643 382.17 126.183 381.04 126.189 379.386C126.183 378.142 125.382 377.381 123.734 377.023L122.246 376.705C121.359 376.506 121.007 376.199 121.013 375.693C121.007 375.102 121.661 374.693 122.518 374.693C123.467 374.693 123.967 375.21 124.126 375.784L126.001 375.58ZM130.396 382.176C131.766 382.176 132.584 381.534 132.959 380.801H133.027V382H135.004V376.159C135.004 373.852 133.124 373.159 131.459 373.159C129.624 373.159 128.214 373.977 127.76 375.568L129.68 375.841C129.885 375.244 130.464 374.733 131.47 374.733C132.425 374.733 132.947 375.222 132.947 376.08V376.114C132.947 376.705 132.328 376.733 130.788 376.898C129.095 377.08 127.476 377.585 127.476 379.551C127.476 381.267 128.732 382.176 130.396 382.176ZM130.93 380.665C130.072 380.665 129.459 380.273 129.459 379.517C129.459 378.727 130.146 378.398 131.067 378.267C131.607 378.193 132.686 378.057 132.953 377.841V378.869C132.953 379.841 132.169 380.665 130.93 380.665ZM140.879 382.17C143.072 382.17 144.47 380.869 144.618 379.017H142.652C142.476 379.955 141.8 380.494 140.896 380.494C139.612 380.494 138.783 379.42 138.783 377.636C138.783 375.875 139.629 374.818 140.896 374.818C141.885 374.818 142.493 375.455 142.652 376.295H144.618C144.476 374.403 142.999 373.159 140.868 373.159C138.311 373.159 136.697 375.006 136.697 377.67C136.697 380.312 138.271 382.17 140.879 382.17ZM150.665 373.273H148.943V371.182H146.886V373.273H145.648V374.864H146.886V379.716C146.875 381.358 148.068 382.165 149.614 382.119C150.199 382.102 150.602 381.989 150.824 381.915L150.477 380.307C150.364 380.335 150.131 380.386 149.875 380.386C149.358 380.386 148.943 380.205 148.943 379.375V374.864H150.665V373.273ZM152.385 382H154.442V373.273H152.385V382ZM153.419 372.034C154.072 372.034 154.607 371.534 154.607 370.92C154.607 370.301 154.072 369.801 153.419 369.801C152.76 369.801 152.226 370.301 152.226 370.92C152.226 371.534 152.76 372.034 153.419 372.034ZM160.364 382.17C162.92 382.17 164.545 380.369 164.545 377.67C164.545 374.966 162.92 373.159 160.364 373.159C157.807 373.159 156.182 374.966 156.182 377.67C156.182 380.369 157.807 382.17 160.364 382.17ZM160.375 380.523C158.96 380.523 158.267 379.261 158.267 377.665C158.267 376.068 158.96 374.79 160.375 374.79C161.767 374.79 162.46 376.068 162.46 377.665C162.46 379.261 161.767 380.523 160.375 380.523ZM168.348 376.886C168.348 375.625 169.109 374.898 170.195 374.898C171.257 374.898 171.893 375.597 171.893 376.761V382H173.95V376.443C173.956 374.352 172.763 373.159 170.962 373.159C169.655 373.159 168.757 373.784 168.359 374.756H168.257V373.273H166.291V382H168.348V376.886Z" fill="#343C6A"/>
<rect x="25" y="398" width="325" height="214" rx="15" fill="white"/>
<path d="M112.415 439C115.517 439 117.312 437.076 117.312 433.894C117.312 430.727 115.517 428.818 112.519 428.818H109.119V439H112.415ZM110.655 437.658V430.161H112.425C114.652 430.161 115.8 431.493 115.8 433.894C115.8 436.305 114.652 437.658 112.33 437.658H110.655ZM122.394 439.154C124.059 439.154 125.238 438.334 125.576 437.091L124.169 436.837C123.9 437.558 123.254 437.926 122.409 437.926C121.136 437.926 120.281 437.101 120.241 435.629H125.67V435.102C125.67 432.343 124.02 431.264 122.29 431.264C120.162 431.264 118.76 432.885 118.76 435.232C118.76 437.603 120.142 439.154 122.394 439.154ZM120.246 434.516C120.306 433.432 121.091 432.492 122.3 432.492C123.453 432.492 124.209 433.347 124.214 434.516H120.246ZM127.32 441.864H128.806V437.812H128.896C129.164 438.299 129.711 439.149 131.103 439.149C132.952 439.149 134.295 437.668 134.295 435.197C134.295 432.721 132.933 431.264 131.088 431.264C129.671 431.264 129.159 432.129 128.896 432.602H128.771V431.364H127.32V441.864ZM128.776 435.182C128.776 433.586 129.472 432.527 130.77 432.527C132.117 432.527 132.793 433.665 132.793 435.182C132.793 436.713 132.097 437.881 130.77 437.881C129.492 437.881 128.776 436.788 128.776 435.182ZM139.177 439.154C141.33 439.154 142.737 437.578 142.737 435.217C142.737 432.84 141.33 431.264 139.177 431.264C137.024 431.264 135.617 432.84 135.617 435.217C135.617 437.578 137.024 439.154 139.177 439.154ZM139.182 437.906C137.775 437.906 137.119 436.678 137.119 435.212C137.119 433.75 137.775 432.507 139.182 432.507C140.579 432.507 141.235 433.75 141.235 435.212C141.235 436.678 140.579 437.906 139.182 437.906ZM150.118 433.228C149.81 432.04 148.88 431.264 147.23 431.264C145.504 431.264 144.281 432.174 144.281 433.526C144.281 434.61 144.938 435.331 146.369 435.649L147.662 435.933C148.398 436.097 148.741 436.425 148.741 436.902C148.741 437.494 148.11 437.956 147.135 437.956C146.245 437.956 145.673 437.573 145.494 436.822L144.058 437.041C144.306 438.393 145.43 439.154 147.145 439.154C148.99 439.154 150.267 438.175 150.267 436.793C150.267 435.714 149.581 435.048 148.179 434.724L146.966 434.446C146.126 434.247 145.763 433.964 145.768 433.447C145.763 432.86 146.399 432.442 147.244 432.442C148.169 432.442 148.597 432.955 148.771 433.467L150.118 433.228ZM151.902 439H153.388V431.364H151.902V439ZM152.652 430.185C153.164 430.185 153.592 429.788 153.592 429.3C153.592 428.813 153.164 428.411 152.652 428.411C152.135 428.411 151.713 428.813 151.713 429.3C151.713 429.788 152.135 430.185 152.652 430.185ZM158.953 431.364H157.387V429.534H155.9V431.364H154.781V432.557H155.9V437.066C155.895 438.453 156.954 439.124 158.127 439.099C158.6 439.094 158.918 439.005 159.092 438.94L158.823 437.712C158.724 437.732 158.54 437.777 158.301 437.777C157.819 437.777 157.387 437.618 157.387 436.758V432.557H158.953V431.364ZM167.936 431.364H166.291V430.678C166.291 430.001 166.569 429.634 167.295 429.634C167.603 429.634 167.822 429.703 167.961 429.748L168.309 428.545C168.1 428.465 167.668 428.341 167.066 428.341C165.858 428.341 164.799 429.047 164.799 430.479V431.364H163.621V432.557H164.799V439H166.291V432.557H167.936V431.364ZM169.47 439H170.956V434.337C170.956 433.337 171.727 432.616 172.781 432.616C173.089 432.616 173.437 432.671 173.557 432.706V431.284C173.407 431.264 173.114 431.249 172.925 431.249C172.03 431.249 171.265 431.756 170.986 432.577H170.907V431.364H169.47V439ZM177.786 439.154C179.939 439.154 181.346 437.578 181.346 435.217C181.346 432.84 179.939 431.264 177.786 431.264C175.634 431.264 174.227 432.84 174.227 435.217C174.227 437.578 175.634 439.154 177.786 439.154ZM177.791 437.906C176.384 437.906 175.728 436.678 175.728 435.212C175.728 433.75 176.384 432.507 177.791 432.507C179.188 432.507 179.844 433.75 179.844 435.212C179.844 436.678 179.188 437.906 177.791 437.906ZM183.005 439H184.492V434.292C184.492 433.263 185.213 432.547 186.058 432.547C186.883 432.547 187.455 433.094 187.455 433.924V439H188.936V434.133C188.936 433.213 189.498 432.547 190.468 432.547C191.253 432.547 191.899 432.984 191.899 434.018V439H193.386V433.879C193.386 432.134 192.411 431.264 191.029 431.264C189.931 431.264 189.105 431.791 188.737 432.607H188.658C188.325 431.771 187.624 431.264 186.605 431.264C185.595 431.264 184.845 431.766 184.526 432.607H184.432V431.364H183.005V439ZM199.083 439H200.57V434.292C200.57 433.263 201.291 432.547 202.136 432.547C202.961 432.547 203.533 433.094 203.533 433.924V439H205.014V434.133C205.014 433.213 205.576 432.547 206.546 432.547C207.331 432.547 207.977 432.984 207.977 434.018V439H209.464V433.879C209.464 432.134 208.49 431.264 207.107 431.264C206.009 431.264 205.183 431.791 204.816 432.607H204.736C204.403 431.771 203.702 431.264 202.683 431.264C201.673 431.264 200.923 431.766 200.605 432.607H200.51V431.364H199.083V439ZM212.123 441.864C213.35 441.864 214.126 441.222 214.569 440.019L217.725 431.379L216.12 431.364L214.186 437.29H214.106L212.172 431.364H210.581L213.375 439.099L213.191 439.607C212.814 440.621 212.282 440.705 211.466 440.482L211.108 441.7C211.287 441.779 211.675 441.864 212.123 441.864Z" fill="#232323"/>
<path d="M108.903 458H114.409V457.062H110.352V456.994L112.312 454.898C113.812 453.291 114.256 452.541 114.256 451.574C114.256 450.227 113.165 449.153 111.631 449.153C110.101 449.153 108.938 450.193 108.938 451.727H109.943C109.943 450.734 110.587 450.074 111.597 450.074C112.543 450.074 113.267 450.653 113.267 451.574C113.267 452.379 112.794 452.976 111.784 454.08L108.903 457.233V458ZM118.964 458.119C120.707 458.119 121.922 457.101 121.93 455.682C121.922 454.578 121.185 453.641 120.243 453.466V453.415C121.061 453.202 121.598 452.401 121.607 451.472C121.598 450.142 120.482 449.153 118.964 449.153C117.43 449.153 116.314 450.142 116.322 451.472C116.314 452.401 116.851 453.202 117.686 453.415V453.466C116.727 453.641 115.99 454.578 115.999 455.682C115.99 457.101 117.205 458.119 118.964 458.119ZM118.964 457.182C117.767 457.182 117.03 456.568 117.038 455.631C117.03 454.646 117.844 453.943 118.964 453.943C120.068 453.943 120.882 454.646 120.891 455.631C120.882 456.568 120.145 457.182 118.964 457.182ZM118.964 453.04C118.01 453.04 117.337 452.443 117.345 451.54C117.337 450.653 117.984 450.074 118.964 450.074C119.928 450.074 120.575 450.653 120.584 451.54C120.575 452.443 119.902 453.04 118.964 453.04ZM130.433 449.273V455.511C130.433 456.598 129.913 457.182 129.001 457.182C128.17 457.182 127.569 456.696 127.569 455.955H126.529C126.529 457.297 127.569 458.119 129.001 458.119C130.518 458.119 131.49 457.186 131.49 455.511V449.273H130.433ZM135.397 458.153C136.539 458.153 137.136 457.54 137.341 457.114H137.392V458H138.397V453.688C138.397 451.608 136.812 451.369 135.977 451.369C134.988 451.369 133.863 451.71 133.352 452.903L134.306 453.244C134.528 452.767 135.052 452.256 136.011 452.256C136.936 452.256 137.392 452.746 137.392 453.585V453.619C137.392 454.105 136.897 454.062 135.704 454.216C134.49 454.374 133.164 454.642 133.164 456.142C133.164 457.42 134.153 458.153 135.397 458.153ZM135.551 457.25C134.75 457.25 134.17 456.892 134.17 456.193C134.17 455.426 134.869 455.188 135.653 455.085C136.079 455.034 137.221 454.915 137.392 454.71V455.631C137.392 456.449 136.744 457.25 135.551 457.25ZM141.239 454.062C141.239 452.92 141.946 452.273 142.909 452.273C143.842 452.273 144.409 452.882 144.409 453.909V458H145.415V453.841C145.415 452.17 144.524 451.369 143.199 451.369C142.21 451.369 141.597 451.812 141.29 452.477H141.205V451.455H140.233V458H141.239V454.062ZM151.377 455.324C151.377 456.551 150.44 457.114 149.69 457.114C148.855 457.114 148.258 456.5 148.258 455.545V451.455H147.252V455.614C147.252 457.284 148.139 458.085 149.366 458.085C150.355 458.085 151.002 457.557 151.309 456.892H151.377V458H152.383V451.455H151.377V455.324ZM156.151 458.153C157.293 458.153 157.89 457.54 158.094 457.114H158.146V458H159.151V453.688C159.151 451.608 157.566 451.369 156.731 451.369C155.742 451.369 154.617 451.71 154.106 452.903L155.06 453.244C155.282 452.767 155.806 452.256 156.765 452.256C157.69 452.256 158.146 452.746 158.146 453.585V453.619C158.146 454.105 157.651 454.062 156.458 454.216C155.244 454.374 153.918 454.642 153.918 456.142C153.918 457.42 154.907 458.153 156.151 458.153ZM156.305 457.25C155.504 457.25 154.924 456.892 154.924 456.193C154.924 455.426 155.623 455.188 156.407 455.085C156.833 455.034 157.975 454.915 158.146 454.71V455.631C158.146 456.449 157.498 457.25 156.305 457.25ZM160.987 458H161.993V453.858C161.993 452.972 162.691 452.324 163.646 452.324C163.914 452.324 164.191 452.375 164.26 452.392V451.369C164.145 451.361 163.88 451.352 163.731 451.352C162.947 451.352 162.265 451.795 162.027 452.443H161.958V451.455H160.987V458ZM166.299 460.455C167.206 460.455 167.846 459.973 168.225 458.955L171.012 451.472L169.912 451.455L168.105 456.67H168.037L166.23 451.455H165.14L167.56 458.034L167.373 458.545C167.006 459.543 166.554 459.636 165.821 459.449L165.566 460.335C165.668 460.386 165.958 460.455 166.299 460.455ZM175.7 458H181.206V457.062H177.149V456.994L179.109 454.898C180.609 453.291 181.053 452.541 181.053 451.574C181.053 450.227 179.962 449.153 178.428 449.153C176.898 449.153 175.734 450.193 175.734 451.727H176.74C176.74 450.734 177.384 450.074 178.393 450.074C179.339 450.074 180.064 450.653 180.064 451.574C180.064 452.379 179.591 452.976 178.581 454.08L175.7 457.233V458ZM185.812 458.119C187.739 458.119 188.847 456.487 188.847 453.636C188.847 450.807 187.722 449.153 185.812 449.153C183.903 449.153 182.778 450.807 182.778 453.636C182.778 456.487 183.886 458.119 185.812 458.119ZM185.812 457.182C184.543 457.182 183.801 455.908 183.801 453.636C183.801 451.369 184.551 450.074 185.812 450.074C187.074 450.074 187.824 451.369 187.824 453.636C187.824 455.908 187.082 457.182 185.812 457.182ZM190.466 458H195.972V457.062H191.915V456.994L193.875 454.898C195.375 453.291 195.818 452.541 195.818 451.574C195.818 450.227 194.727 449.153 193.193 449.153C191.663 449.153 190.5 450.193 190.5 451.727H191.506C191.506 450.734 192.149 450.074 193.159 450.074C194.105 450.074 194.83 450.653 194.83 451.574C194.83 452.379 194.357 452.976 193.347 454.08L190.466 457.233V458ZM200.8 449.273H199.743L197.561 450.722V451.795L199.692 450.381H199.743V458H200.8V449.273Z" fill="#718EBF"/>
<path d="M303.277 443.496H299.73V444.508H303.277V443.496ZM307.229 449H307.963L307.967 448.121C309.619 448 310.564 447.055 310.564 445.789C310.564 444.348 309.279 443.789 308.264 443.539L307.979 443.465L307.986 440.957C308.717 441.055 309.217 441.461 309.291 442.102H310.455C310.424 440.91 309.439 440.02 307.99 439.902L307.994 439H307.26L307.256 439.91C305.854 440.051 304.826 440.926 304.826 442.187C304.826 443.301 305.623 443.953 306.908 444.301L307.244 444.391L307.236 447.051C306.475 446.957 305.885 446.543 305.822 445.789H304.611C304.686 447.137 305.658 448.004 307.232 448.121L307.229 449ZM307.971 447.051L307.979 444.594C308.771 444.812 309.369 445.102 309.369 445.777C309.369 446.461 308.799 446.941 307.971 447.051ZM307.248 443.27C306.666 443.098 306.025 442.789 306.029 442.117C306.029 441.531 306.494 441.074 307.252 440.961L307.248 443.27ZM314.601 448.109C316.265 448.109 317.44 447.164 317.448 445.867C317.44 444.859 316.733 444.012 315.839 443.852V443.805C316.616 443.617 317.144 442.887 317.151 442.023C317.144 440.801 316.065 439.891 314.601 439.891C313.12 439.891 312.042 440.801 312.05 442.023C312.042 442.883 312.569 443.617 313.362 443.805V443.852C312.452 444.012 311.745 444.859 311.753 445.867C311.745 447.164 312.921 448.109 314.601 448.109ZM314.601 447.121C313.601 447.121 312.968 446.59 312.976 445.789C312.968 444.957 313.655 444.363 314.601 444.363C315.53 444.363 316.218 444.957 316.226 445.789C316.218 446.59 315.589 447.121 314.601 447.121ZM314.601 443.398C313.792 443.398 313.218 442.887 313.226 442.125C313.218 441.375 313.772 440.879 314.601 440.879C315.413 440.879 315.968 441.375 315.976 442.125C315.968 442.887 315.397 443.398 314.601 443.398ZM321.488 448.109C323.098 448.109 324.246 446.973 324.242 445.414C324.246 443.867 323.168 442.742 321.711 442.742C321.117 442.742 320.566 442.969 320.254 443.273H320.207L320.461 441.035H323.855V440H319.457L319.008 444.031L320.113 444.195C320.414 443.926 320.953 443.742 321.438 443.742C322.387 443.75 323.074 444.461 323.074 445.437C323.074 446.398 322.406 447.094 321.488 447.094C320.715 447.094 320.102 446.602 320.039 445.914H318.867C318.914 447.187 320.02 448.109 321.488 448.109ZM328.454 448.133C330.302 448.133 331.384 446.625 331.384 444.004C331.384 441.402 330.286 439.891 328.454 439.891C326.618 439.891 325.524 441.398 325.521 444.004C325.521 446.621 326.603 448.129 328.454 448.133ZM328.454 447.09C327.372 447.09 326.72 446.004 326.72 444.004C326.724 442.012 327.376 440.914 328.454 440.914C329.528 440.914 330.185 442.012 330.185 444.004C330.185 446.004 329.532 447.09 328.454 447.09Z" fill="#FF4B4A"/>
<circle cx="68" cy="443" r="25" fill="#FFF5D9"/>
<path d="M71.6475 452.973H60.0713C59.4517 452.972 58.8577 452.726 58.4196 452.287C57.9814 451.849 57.735 451.255 57.7344 450.636V443.727C57.735 443.107 57.9814 442.513 58.4196 442.075C58.8577 441.637 59.4517 441.391 60.0713 441.39H71.6475C72.2671 441.391 72.8611 441.637 73.2992 442.075C73.7373 442.513 73.9837 443.107 73.9844 443.727V450.636C73.9837 451.255 73.7373 451.849 73.2992 452.287C72.8611 452.726 72.2671 452.972 71.6475 452.973ZM60.0713 442.855C59.8401 442.855 59.6184 442.947 59.4549 443.111C59.2914 443.274 59.1995 443.496 59.1992 443.727V450.636C59.1995 450.867 59.2914 451.089 59.4549 451.252C59.6184 451.416 59.8401 451.508 60.0713 451.508H71.6475C71.8787 451.508 72.1003 451.416 72.2638 451.252C72.4273 451.089 72.5193 450.867 72.5195 450.636V443.727C72.5193 443.496 72.4273 443.274 72.2638 443.111C72.1003 442.947 71.8787 442.855 71.6475 442.855H60.0713Z" fill="#FFBB38"/>
<path d="M74.9297 449.028H73.2519C73.0577 449.028 72.8714 448.951 72.734 448.814C72.5967 448.676 72.5195 448.49 72.5195 448.296C72.5195 448.102 72.5967 447.915 72.734 447.778C72.8714 447.641 73.0577 447.563 73.2519 447.563H74.9297C75.1607 447.563 75.3821 447.471 75.5454 447.307C75.7087 447.144 75.8005 446.922 75.8008 446.691V439.783C75.8006 439.552 75.7089 439.33 75.5456 439.166C75.3823 439.003 75.1608 438.911 74.9297 438.91H63.3535C63.1223 438.91 62.9006 439.002 62.7371 439.166C62.5736 439.329 62.4817 439.551 62.4814 439.782V442.122C62.4814 442.316 62.4042 442.503 62.2669 442.64C62.1295 442.777 61.9432 442.854 61.749 442.854C61.5547 442.854 61.3684 442.777 61.2311 442.64C61.0937 442.503 61.0166 442.316 61.0166 442.122V439.783C61.0171 439.163 61.2634 438.569 61.7016 438.131C62.1397 437.692 62.7338 437.446 63.3535 437.445H74.9297C75.5492 437.446 76.143 437.693 76.5809 438.131C77.0189 438.569 77.2651 439.163 77.2656 439.783V446.691C77.2649 447.311 77.0187 447.905 76.5808 448.343C76.1429 448.781 75.5491 449.027 74.9297 449.028Z" fill="#FFBB38"/>
<path d="M73.252 447.738H58.4668C58.2725 447.738 58.0863 447.661 57.9489 447.523C57.8115 447.386 57.7344 447.2 57.7344 447.005V444.545C57.7344 444.351 57.8115 444.165 57.9489 444.028C58.0863 443.89 58.2725 443.813 58.4668 443.813H73.252C73.4462 443.813 73.6325 443.89 73.7699 444.028C73.9072 444.165 73.9844 444.351 73.9844 444.545V447.005C73.9844 447.2 73.9072 447.386 73.7699 447.523C73.6325 447.661 73.4462 447.738 73.252 447.738ZM59.1992 446.273H72.5195V445.278H59.1992V446.273Z" fill="#FFBB38"/>
<path d="M113.415 501C116.517 501 118.312 499.076 118.312 495.894C118.312 492.727 116.517 490.818 113.519 490.818H110.119V501H113.415ZM111.655 499.658V492.161H113.425C115.652 492.161 116.8 493.493 116.8 495.894C116.8 498.305 115.652 499.658 113.33 499.658H111.655ZM123.394 501.154C125.059 501.154 126.238 500.334 126.576 499.091L125.169 498.837C124.9 499.558 124.254 499.926 123.409 499.926C122.136 499.926 121.281 499.101 121.241 497.629H126.67V497.102C126.67 494.343 125.02 493.264 123.29 493.264C121.162 493.264 119.76 494.885 119.76 497.232C119.76 499.603 121.142 501.154 123.394 501.154ZM121.246 496.516C121.306 495.432 122.091 494.492 123.3 494.492C124.453 494.492 125.209 495.347 125.214 496.516H121.246ZM128.32 503.864H129.806V499.812H129.896C130.164 500.299 130.711 501.149 132.103 501.149C133.952 501.149 135.295 499.668 135.295 497.197C135.295 494.721 133.933 493.264 132.088 493.264C130.671 493.264 130.159 494.129 129.896 494.602H129.771V493.364H128.32V503.864ZM129.776 497.182C129.776 495.586 130.472 494.527 131.77 494.527C133.117 494.527 133.793 495.665 133.793 497.182C133.793 498.713 133.097 499.881 131.77 499.881C130.492 499.881 129.776 498.788 129.776 497.182ZM140.177 501.154C142.33 501.154 143.737 499.578 143.737 497.217C143.737 494.84 142.33 493.264 140.177 493.264C138.024 493.264 136.617 494.84 136.617 497.217C136.617 499.578 138.024 501.154 140.177 501.154ZM140.182 499.906C138.775 499.906 138.119 498.678 138.119 497.212C138.119 495.75 138.775 494.507 140.182 494.507C141.579 494.507 142.235 495.75 142.235 497.212C142.235 498.678 141.579 499.906 140.182 499.906ZM151.118 495.228C150.81 494.04 149.88 493.264 148.23 493.264C146.504 493.264 145.281 494.174 145.281 495.526C145.281 496.61 145.938 497.331 147.369 497.649L148.662 497.933C149.398 498.097 149.741 498.425 149.741 498.902C149.741 499.494 149.11 499.956 148.135 499.956C147.245 499.956 146.673 499.573 146.494 498.822L145.058 499.041C145.306 500.393 146.43 501.154 148.145 501.154C149.99 501.154 151.267 500.175 151.267 498.793C151.267 497.714 150.581 497.048 149.179 496.724L147.966 496.446C147.126 496.247 146.763 495.964 146.768 495.447C146.763 494.86 147.399 494.442 148.244 494.442C149.169 494.442 149.597 494.955 149.771 495.467L151.118 495.228ZM152.902 501H154.388V493.364H152.902V501ZM153.652 492.185C154.164 492.185 154.592 491.788 154.592 491.3C154.592 490.813 154.164 490.411 153.652 490.411C153.135 490.411 152.713 490.813 152.713 491.3C152.713 491.788 153.135 492.185 153.652 492.185ZM159.953 493.364H158.387V491.534H156.9V493.364H155.781V494.557H156.9V499.066C156.895 500.453 157.954 501.124 159.127 501.099C159.6 501.094 159.918 501.005 160.092 500.94L159.823 499.712C159.724 499.732 159.54 499.777 159.301 499.777C158.819 499.777 158.387 499.618 158.387 498.758V494.557H159.953V493.364ZM165.421 501H166.958V497.42H169.046C171.407 497.42 172.575 495.994 172.575 494.114C172.575 492.24 171.417 490.818 169.051 490.818H165.421V501ZM166.958 496.118V492.136H168.887C170.408 492.136 171.029 492.961 171.029 494.114C171.029 495.268 170.408 496.118 168.906 496.118H166.958ZM176.411 501.169C177.674 501.169 178.385 500.528 178.668 499.956H178.728V501H180.18V495.929C180.18 493.707 178.43 493.264 177.216 493.264C175.834 493.264 174.562 493.821 174.064 495.213L175.461 495.531C175.68 494.989 176.237 494.467 177.236 494.467C178.196 494.467 178.688 494.969 178.688 495.835V495.869C178.688 496.411 178.131 496.401 176.759 496.56C175.312 496.729 173.831 497.107 173.831 498.842C173.831 500.344 174.959 501.169 176.411 501.169ZM176.734 499.976C175.894 499.976 175.287 499.598 175.287 498.862C175.287 498.067 175.993 497.783 176.854 497.669C177.336 497.604 178.479 497.475 178.693 497.261V498.246C178.693 499.151 177.972 499.976 176.734 499.976ZM182.826 503.864C184.054 503.864 184.829 503.222 185.272 502.019L188.429 493.379L186.823 493.364L184.889 499.29H184.809L182.875 493.364H181.284L184.078 501.099L183.895 501.607C183.517 502.621 182.985 502.705 182.169 502.482L181.811 503.7C181.99 503.779 182.378 503.864 182.826 503.864ZM189.829 503.864H191.316V499.812H191.405C191.674 500.299 192.221 501.149 193.613 501.149C195.462 501.149 196.805 499.668 196.805 497.197C196.805 494.721 195.442 493.264 193.598 493.264C192.181 493.264 191.669 494.129 191.405 494.602H191.281V493.364H189.829V503.864ZM191.286 497.182C191.286 495.586 191.982 494.527 193.28 494.527C194.627 494.527 195.303 495.665 195.303 497.182C195.303 498.713 194.607 499.881 193.28 499.881C192.002 499.881 191.286 498.788 191.286 497.182ZM200.692 501.169C201.955 501.169 202.666 500.528 202.949 499.956H203.009V501H204.461V495.929C204.461 493.707 202.711 493.264 201.498 493.264C200.116 493.264 198.843 493.821 198.346 495.213L199.743 495.531C199.961 494.989 200.518 494.467 201.518 494.467C202.477 494.467 202.969 494.969 202.969 495.835V495.869C202.969 496.411 202.412 496.401 201.04 496.56C199.594 496.729 198.112 497.107 198.112 498.842C198.112 500.344 199.241 501.169 200.692 501.169ZM201.015 499.976C200.175 499.976 199.569 499.598 199.569 498.862C199.569 498.067 200.275 497.783 201.135 497.669C201.617 497.604 202.76 497.475 202.974 497.261V498.246C202.974 499.151 202.253 499.976 201.015 499.976ZM207.927 490.818H206.441V501H207.927V490.818Z" fill="#232323"/>
<path d="M109.903 520H115.409V519.062H111.352V518.994L113.312 516.898C114.812 515.291 115.256 514.541 115.256 513.574C115.256 512.227 114.165 511.153 112.631 511.153C111.101 511.153 109.938 512.193 109.938 513.727H110.943C110.943 512.734 111.587 512.074 112.597 512.074C113.543 512.074 114.267 512.653 114.267 513.574C114.267 514.379 113.794 514.976 112.784 516.08L109.903 519.233V520ZM119.896 520.119C121.558 520.119 122.777 518.892 122.777 517.222C122.777 515.53 121.601 514.29 119.999 514.29C119.411 514.29 118.839 514.499 118.482 514.784H118.43L118.737 512.21H122.385V511.273H117.851L117.322 515.568L118.311 515.688C118.673 515.428 119.291 515.24 119.828 515.244C120.94 515.253 121.754 516.097 121.754 517.239C121.754 518.359 120.97 519.182 119.896 519.182C119.001 519.182 118.29 518.607 118.209 517.818H117.186C117.25 519.148 118.396 520.119 119.896 520.119ZM131.339 511.273V517.511C131.339 518.598 130.819 519.182 129.907 519.182C129.076 519.182 128.475 518.696 128.475 517.955H127.436C127.436 519.297 128.475 520.119 129.907 520.119C131.424 520.119 132.396 519.186 132.396 517.511V511.273H131.339ZM136.304 520.153C137.446 520.153 138.042 519.54 138.247 519.114H138.298V520H139.304V515.688C139.304 513.608 137.718 513.369 136.883 513.369C135.895 513.369 134.77 513.71 134.258 514.903L135.213 515.244C135.434 514.767 135.958 514.256 136.917 514.256C137.842 514.256 138.298 514.746 138.298 515.585V515.619C138.298 516.105 137.804 516.062 136.61 516.216C135.396 516.374 134.071 516.642 134.071 518.142C134.071 519.42 135.059 520.153 136.304 520.153ZM136.457 519.25C135.656 519.25 135.076 518.892 135.076 518.193C135.076 517.426 135.775 517.188 136.559 517.085C136.985 517.034 138.127 516.915 138.298 516.71V517.631C138.298 518.449 137.65 519.25 136.457 519.25ZM142.145 516.062C142.145 514.92 142.852 514.273 143.815 514.273C144.749 514.273 145.315 514.882 145.315 515.909V520H146.321V515.841C146.321 514.17 145.43 513.369 144.105 513.369C143.116 513.369 142.503 513.812 142.196 514.477H142.111V513.455H141.139V520H142.145V516.062ZM152.284 517.324C152.284 518.551 151.346 519.114 150.596 519.114C149.761 519.114 149.164 518.5 149.164 517.545V513.455H148.159V517.614C148.159 519.284 149.045 520.085 150.272 520.085C151.261 520.085 151.909 519.557 152.216 518.892H152.284V520H153.289V513.455H152.284V517.324ZM157.058 520.153C158.2 520.153 158.796 519.54 159.001 519.114H159.052V520H160.058V515.688C160.058 513.608 158.472 513.369 157.637 513.369C156.648 513.369 155.523 513.71 155.012 514.903L155.967 515.244C156.188 514.767 156.712 514.256 157.671 514.256C158.596 514.256 159.052 514.746 159.052 515.585V515.619C159.052 516.105 158.558 516.062 157.364 516.216C156.15 516.374 154.825 516.642 154.825 518.142C154.825 519.42 155.813 520.153 157.058 520.153ZM157.211 519.25C156.41 519.25 155.83 518.892 155.83 518.193C155.83 517.426 156.529 517.188 157.313 517.085C157.739 517.034 158.881 516.915 159.052 516.71V517.631C159.052 518.449 158.404 519.25 157.211 519.25ZM161.893 520H162.899V515.858C162.899 514.972 163.598 514.324 164.552 514.324C164.821 514.324 165.098 514.375 165.166 514.392V513.369C165.051 513.361 164.787 513.352 164.637 513.352C163.853 513.352 163.172 513.795 162.933 514.443H162.865V513.455H161.893V520ZM167.205 522.455C168.113 522.455 168.752 521.973 169.131 520.955L171.918 513.472L170.819 513.455L169.012 518.67H168.944L167.137 513.455H166.046L168.466 520.034L168.279 520.545C167.912 521.543 167.461 521.636 166.728 521.449L166.472 522.335C166.574 522.386 166.864 522.455 167.205 522.455ZM176.607 520H182.112V519.062H178.055V518.994L180.016 516.898C181.516 515.291 181.959 514.541 181.959 513.574C181.959 512.227 180.868 511.153 179.334 511.153C177.804 511.153 176.641 512.193 176.641 513.727H177.646C177.646 512.734 178.29 512.074 179.3 512.074C180.246 512.074 180.97 512.653 180.97 513.574C180.97 514.379 180.497 514.976 179.487 516.08L176.607 519.233V520ZM186.719 520.119C188.645 520.119 189.753 518.487 189.753 515.636C189.753 512.807 188.628 511.153 186.719 511.153C184.81 511.153 183.685 512.807 183.685 515.636C183.685 518.487 184.793 520.119 186.719 520.119ZM186.719 519.182C185.449 519.182 184.707 517.908 184.707 515.636C184.707 513.369 185.457 512.074 186.719 512.074C187.98 512.074 188.73 513.369 188.73 515.636C188.73 517.908 187.989 519.182 186.719 519.182ZM191.372 520H196.878V519.062H192.821V518.994L194.781 516.898C196.281 515.291 196.724 514.541 196.724 513.574C196.724 512.227 195.634 511.153 194.099 511.153C192.57 511.153 191.406 512.193 191.406 513.727H192.412C192.412 512.734 193.055 512.074 194.065 512.074C195.011 512.074 195.736 512.653 195.736 513.574C195.736 514.379 195.263 514.976 194.253 516.08L191.372 519.233V520ZM201.706 511.273H200.649L198.467 512.722V513.795L200.598 512.381H200.649V520H201.706V511.273Z" fill="#718EBF"/>
<path d="M289.923 508.656H290.974V506.539H293.091V505.488H290.974V503.375H289.923V505.488H287.81V506.539H289.923V508.656ZM297.292 511H298.026L298.03 510.121C299.683 510 300.628 509.055 300.628 507.789C300.628 506.348 299.343 505.789 298.327 505.539L298.042 505.465L298.05 502.957C298.78 503.055 299.28 503.461 299.354 504.102H300.519C300.487 502.91 299.503 502.02 298.054 501.902L298.058 501H297.323L297.319 501.91C295.917 502.051 294.89 502.926 294.89 504.187C294.89 505.301 295.687 505.953 296.972 506.301L297.308 506.391L297.3 509.051C296.538 508.957 295.948 508.543 295.886 507.789H294.675C294.749 509.137 295.722 510.004 297.296 510.121L297.292 511ZM298.034 509.051L298.042 506.594C298.835 506.812 299.433 507.102 299.433 507.777C299.433 508.461 298.862 508.941 298.034 509.051ZM297.312 505.27C296.729 505.098 296.089 504.789 296.093 504.117C296.093 503.531 296.558 503.074 297.315 502.961L297.312 505.27ZM301.961 510H307.227V508.965H303.625V508.906L305.215 507.242C306.68 505.762 307.098 505.055 307.098 504.16C307.098 502.875 306.051 501.891 304.543 501.891C303.047 501.891 301.953 502.859 301.953 504.32H303.105C303.102 503.461 303.656 502.898 304.52 502.898C305.332 502.898 305.949 503.398 305.949 504.195C305.949 504.902 305.527 505.41 304.668 506.32L301.961 509.125V510ZM310.242 508.906H309.117L309.078 509.344C308.988 510.402 308.738 511.469 308.633 511.953H309.461C309.648 511.441 310.063 510.27 310.184 509.332L310.242 508.906ZM314.388 510.109C315.997 510.109 317.146 508.973 317.142 507.414C317.146 505.867 316.067 504.742 314.61 504.742C314.017 504.742 313.466 504.969 313.153 505.273H313.106L313.36 503.035H316.755V502H312.356L311.907 506.031L313.013 506.195C313.313 505.926 313.853 505.742 314.337 505.742C315.286 505.75 315.974 506.461 315.974 507.437C315.974 508.398 315.306 509.094 314.388 509.094C313.614 509.094 313.001 508.602 312.938 507.914H311.767C311.813 509.187 312.919 510.109 314.388 510.109ZM321.354 510.133C323.201 510.133 324.283 508.625 324.283 506.004C324.283 503.402 323.186 501.891 321.354 501.891C319.518 501.891 318.424 503.398 318.42 506.004C318.42 508.621 319.502 510.129 321.354 510.133ZM321.354 509.09C320.271 509.09 319.619 508.004 319.619 506.004C319.623 504.012 320.275 502.914 321.354 502.914C322.428 502.914 323.084 504.012 323.084 506.004C323.084 508.004 322.432 509.09 321.354 509.09ZM328.454 510.133C330.302 510.133 331.384 508.625 331.384 506.004C331.384 503.402 330.286 501.891 328.454 501.891C326.618 501.891 325.524 503.398 325.521 506.004C325.521 508.621 326.603 510.129 328.454 510.133ZM328.454 509.09C327.372 509.09 326.72 508.004 326.72 506.004C326.724 504.012 327.376 502.914 328.454 502.914C329.528 502.914 330.185 504.012 330.185 506.004C330.185 508.004 329.532 509.09 328.454 509.09Z" fill="#41D4A8"/>
<circle cx="68" cy="505" r="25" fill="#E7EDFF"/>
<path d="M74.425 500.988C74.4151 499.894 73.9744 498.849 73.1985 498.079C72.4227 497.309 71.3743 496.877 70.2812 496.875H64.25C64.1002 496.873 63.9547 496.925 63.84 497.021C63.7252 497.118 63.649 497.252 63.625 497.4L61.4875 510.806C61.4741 510.895 61.4801 510.986 61.5049 511.072C61.5297 511.158 61.5728 511.238 61.6312 511.306C61.6893 511.376 61.7619 511.432 61.8439 511.471C61.926 511.51 62.0155 511.531 62.1062 511.531H64.6875L64.55 512.4C64.5354 512.49 64.5407 512.582 64.5655 512.67C64.5903 512.758 64.634 512.839 64.6936 512.908C64.7531 512.977 64.8271 513.032 64.9103 513.07C64.9934 513.107 65.0838 513.126 65.175 513.125H68.0812C68.2301 513.127 68.3749 513.076 68.4895 512.981C68.6041 512.886 68.6809 512.753 68.7062 512.606L69.3312 508.788H71.3C72.5322 508.783 73.7124 508.29 74.5826 507.418C75.4527 506.545 75.9421 505.364 75.9437 504.131V503.956C75.9431 503.377 75.8052 502.805 75.5412 502.289C75.2772 501.773 74.8947 501.327 74.425 500.988ZM64.7812 498.125H70.2812C70.937 498.127 71.5727 498.351 72.0846 498.761C72.5965 499.171 72.9544 499.742 73.1 500.381C72.8296 500.318 72.5527 500.286 72.275 500.288H67.0625C66.9127 500.286 66.7672 500.338 66.6525 500.434C66.5377 500.53 66.4615 500.665 66.4375 500.813L66.0687 503.125C66.0422 503.291 66.0826 503.46 66.1811 503.596C66.2796 503.732 66.428 503.824 66.5937 503.85C66.7595 503.877 66.929 503.836 67.065 503.738C67.2009 503.639 67.2922 503.491 67.3187 503.325L67.6062 501.525H72.2875C72.5871 501.527 72.8838 501.584 73.1625 501.694C73.0437 502.672 72.5716 503.574 71.8351 504.228C71.0985 504.883 70.1481 505.247 69.1625 505.25H66.2625C66.1136 505.248 65.9688 505.299 65.8542 505.394C65.7397 505.489 65.6628 505.622 65.6375 505.769L64.875 510.281H62.8375L64.7812 498.125ZM74.6937 504.131C74.6921 505.032 74.3344 505.896 73.6987 506.534C73.0629 507.172 72.2007 507.533 71.3 507.538H68.8C68.6511 507.535 68.5063 507.586 68.3917 507.682C68.2772 507.777 68.2003 507.91 68.175 508.056L67.55 511.875H65.9L66.0375 511.006L66.7875 506.513H69.15C70.3168 506.509 71.4497 506.12 72.3721 505.405C73.2946 504.691 73.9549 503.691 74.25 502.563C74.5401 502.969 74.6953 503.457 74.6937 503.956V504.131Z" fill="#396AFF"/>
<path d="M114.076 552.818V560.037C114.071 561.21 113.524 561.837 112.55 561.837C111.65 561.837 111.023 561.3 111.018 560.455H109.492C109.492 562.175 110.785 563.139 112.51 563.139C114.379 563.139 115.602 561.996 115.607 560.037V552.818H114.076ZM121.015 563.154C122.681 563.154 123.859 562.334 124.197 561.091L122.79 560.837C122.521 561.558 121.875 561.926 121.03 561.926C119.757 561.926 118.902 561.101 118.862 559.629H124.291V559.102C124.291 556.343 122.641 555.264 120.911 555.264C118.783 555.264 117.381 556.885 117.381 559.232C117.381 561.603 118.763 563.154 121.015 563.154ZM118.867 558.516C118.927 557.432 119.713 556.492 120.921 556.492C122.074 556.492 122.83 557.347 122.835 558.516H118.867ZM125.941 563H127.427V558.292C127.427 557.263 128.148 556.547 128.993 556.547C129.819 556.547 130.39 557.094 130.39 557.924V563H131.872V558.133C131.872 557.213 132.434 556.547 133.403 556.547C134.189 556.547 134.835 556.984 134.835 558.018V563H136.321V557.879C136.321 556.134 135.347 555.264 133.965 555.264C132.866 555.264 132.041 555.791 131.673 556.607H131.593C131.26 555.771 130.559 555.264 129.54 555.264C128.531 555.264 127.78 555.766 127.462 556.607H127.368V555.364H125.941V563ZM138.314 563H139.8V555.364H138.314V563ZM139.064 554.185C139.577 554.185 140.004 553.788 140.004 553.3C140.004 552.813 139.577 552.411 139.064 552.411C138.547 552.411 138.125 552.813 138.125 553.3C138.125 553.788 138.547 554.185 139.064 554.185ZM147.618 563H149.169L151.312 555.374H151.392L153.534 563H155.08L157.909 552.818H156.289L154.31 560.708H154.215L152.152 552.818H150.551L148.488 560.703H148.394L146.41 552.818H144.794L147.618 563ZM159.191 563H160.677V555.364H159.191V563ZM159.941 554.185C160.453 554.185 160.881 553.788 160.881 553.3C160.881 552.813 160.453 552.411 159.941 552.411C159.424 552.411 159.002 552.813 159.002 553.3C159.002 553.788 159.424 554.185 159.941 554.185ZM164.164 552.818H162.677V563H164.164V552.818ZM171.886 557.228C171.577 556.04 170.648 555.264 168.997 555.264C167.272 555.264 166.049 556.174 166.049 557.526C166.049 558.61 166.705 559.331 168.137 559.649L169.43 559.933C170.165 560.097 170.509 560.425 170.509 560.902C170.509 561.494 169.877 561.956 168.903 561.956C168.013 561.956 167.441 561.573 167.262 560.822L165.825 561.041C166.074 562.393 167.197 563.154 168.913 563.154C170.757 563.154 172.035 562.175 172.035 560.793C172.035 559.714 171.349 559.048 169.947 558.724L168.734 558.446C167.893 558.247 167.531 557.964 167.536 557.447C167.531 556.86 168.167 556.442 169.012 556.442C169.937 556.442 170.364 556.955 170.538 557.467L171.886 557.228ZM176.886 563.154C179.039 563.154 180.445 561.578 180.445 559.217C180.445 556.84 179.039 555.264 176.886 555.264C174.733 555.264 173.326 556.84 173.326 559.217C173.326 561.578 174.733 563.154 176.886 563.154ZM176.891 561.906C175.484 561.906 174.828 560.678 174.828 559.212C174.828 557.75 175.484 556.507 176.891 556.507C178.288 556.507 178.944 557.75 178.944 559.212C178.944 560.678 178.288 561.906 176.891 561.906ZM183.591 558.466C183.591 557.248 184.337 556.552 185.371 556.552C186.38 556.552 186.992 557.213 186.992 558.322V563H188.478V558.143C188.478 556.254 187.439 555.264 185.878 555.264C184.73 555.264 183.979 555.796 183.626 556.607H183.532V555.364H182.105V563H183.591V558.466Z" fill="#232323"/>
<path d="M109.903 582H115.409V581.062H111.352V580.994L113.312 578.898C114.812 577.291 115.256 576.541 115.256 575.574C115.256 574.227 114.165 573.153 112.631 573.153C111.101 573.153 109.938 574.193 109.938 575.727H110.943C110.943 574.734 111.587 574.074 112.597 574.074C113.543 574.074 114.267 574.653 114.267 575.574C114.267 576.379 113.794 576.976 112.784 578.08L109.903 581.233V582ZM120.237 573.273H119.18L116.999 574.722V575.795L119.129 574.381H119.18V582H120.237V573.273ZM129.616 573.273V579.511C129.616 580.598 129.097 581.182 128.185 581.182C127.354 581.182 126.753 580.696 126.753 579.955H125.713C125.713 581.297 126.753 582.119 128.185 582.119C129.702 582.119 130.673 581.186 130.673 579.511V573.273H129.616ZM134.581 582.153C135.723 582.153 136.32 581.54 136.524 581.114H136.575V582H137.581V577.688C137.581 575.608 135.996 575.369 135.161 575.369C134.172 575.369 133.047 575.71 132.536 576.903L133.49 577.244C133.712 576.767 134.236 576.256 135.195 576.256C136.119 576.256 136.575 576.746 136.575 577.585V577.619C136.575 578.105 136.081 578.062 134.888 578.216C133.673 578.374 132.348 578.642 132.348 580.142C132.348 581.42 133.337 582.153 134.581 582.153ZM134.734 581.25C133.933 581.25 133.354 580.892 133.354 580.193C133.354 579.426 134.053 579.188 134.837 579.085C135.263 579.034 136.405 578.915 136.575 578.71V579.631C136.575 580.449 135.928 581.25 134.734 581.25ZM140.422 578.062C140.422 576.92 141.13 576.273 142.093 576.273C143.026 576.273 143.593 576.882 143.593 577.909V582H144.598V577.841C144.598 576.17 143.708 575.369 142.382 575.369C141.394 575.369 140.78 575.812 140.473 576.477H140.388V575.455H139.417V582H140.422V578.062ZM150.561 579.324C150.561 580.551 149.624 581.114 148.874 581.114C148.038 581.114 147.442 580.5 147.442 579.545V575.455H146.436V579.614C146.436 581.284 147.322 582.085 148.55 582.085C149.538 582.085 150.186 581.557 150.493 580.892H150.561V582H151.567V575.455H150.561V579.324ZM155.335 582.153C156.477 582.153 157.074 581.54 157.278 581.114H157.329V582H158.335V577.688C158.335 575.608 156.75 575.369 155.914 575.369C154.926 575.369 153.801 575.71 153.289 576.903L154.244 577.244C154.466 576.767 154.99 576.256 155.949 576.256C156.873 576.256 157.329 576.746 157.329 577.585V577.619C157.329 578.105 156.835 578.062 155.642 578.216C154.427 578.374 153.102 578.642 153.102 580.142C153.102 581.42 154.091 582.153 155.335 582.153ZM155.488 581.25C154.687 581.25 154.108 580.892 154.108 580.193C154.108 579.426 154.806 579.188 155.591 579.085C156.017 579.034 157.159 578.915 157.329 578.71V579.631C157.329 580.449 156.681 581.25 155.488 581.25ZM160.17 582H161.176V577.858C161.176 576.972 161.875 576.324 162.83 576.324C163.098 576.324 163.375 576.375 163.443 576.392V575.369C163.328 575.361 163.064 575.352 162.915 575.352C162.131 575.352 161.449 575.795 161.21 576.443H161.142V575.455H160.17V582ZM165.482 584.455C166.39 584.455 167.029 583.973 167.408 582.955L170.195 575.472L169.096 575.455L167.289 580.67H167.221L165.414 575.455H164.323L166.744 582.034L166.556 582.545C166.19 583.543 165.738 583.636 165.005 583.449L164.749 584.335C164.852 584.386 165.141 584.455 165.482 584.455ZM174.884 582H180.39V581.062H176.333V580.994L178.293 578.898C179.793 577.291 180.236 576.541 180.236 575.574C180.236 574.227 179.145 573.153 177.611 573.153C176.081 573.153 174.918 574.193 174.918 575.727H175.924C175.924 574.734 176.567 574.074 177.577 574.074C178.523 574.074 179.248 574.653 179.248 575.574C179.248 576.379 178.775 576.976 177.765 578.08L174.884 581.233V582ZM184.996 582.119C186.922 582.119 188.03 580.487 188.03 577.636C188.03 574.807 186.905 573.153 184.996 573.153C183.087 573.153 181.962 574.807 181.962 577.636C181.962 580.487 183.07 582.119 184.996 582.119ZM184.996 581.182C183.726 581.182 182.985 579.908 182.985 577.636C182.985 575.369 183.735 574.074 184.996 574.074C186.257 574.074 187.007 575.369 187.007 577.636C187.007 579.908 186.266 581.182 184.996 581.182ZM189.65 582H195.155V581.062H191.098V580.994L193.059 578.898C194.559 577.291 195.002 576.541 195.002 575.574C195.002 574.227 193.911 573.153 192.377 573.153C190.847 573.153 189.684 574.193 189.684 575.727H190.689C190.689 574.734 191.333 574.074 192.343 574.074C193.289 574.074 194.013 574.653 194.013 575.574C194.013 576.379 193.54 576.976 192.53 578.08L189.65 581.233V582ZM199.983 573.273H198.926L196.745 574.722V575.795L198.875 574.381H198.926V582H199.983V573.273Z" fill="#718EBF"/>
<path d="M289.622 570.656H290.673V568.539H292.79V567.488H290.673V565.375H289.622V567.488H287.509V568.539H289.622V570.656ZM296.991 573H297.726L297.729 572.121C299.382 572 300.327 571.055 300.327 569.789C300.327 568.348 299.042 567.789 298.026 567.539L297.741 567.465L297.749 564.957C298.479 565.055 298.979 565.461 299.054 566.102H300.218C300.187 564.91 299.202 564.02 297.753 563.902L297.757 563H297.022L297.019 563.91C295.616 564.051 294.589 564.926 294.589 566.187C294.589 567.301 295.386 567.953 296.671 568.301L297.007 568.391L296.999 571.051C296.237 570.957 295.647 570.543 295.585 569.789H294.374C294.448 571.137 295.421 572.004 296.995 572.121L296.991 573ZM297.733 571.051L297.741 568.594C298.534 568.812 299.132 569.102 299.132 569.777C299.132 570.461 298.562 570.941 297.733 571.051ZM297.011 567.27C296.429 567.098 295.788 566.789 295.792 566.117C295.792 565.531 296.257 565.074 297.015 564.961L297.011 567.27ZM304.301 572.109C305.91 572.109 307.059 570.973 307.055 569.414C307.059 567.867 305.98 566.742 304.523 566.742C303.93 566.742 303.379 566.969 303.066 567.273H303.02L303.273 565.035H306.668V564H302.27L301.82 568.031L302.926 568.195C303.227 567.926 303.766 567.742 304.25 567.742C305.199 567.75 305.887 568.461 305.887 569.437C305.887 570.398 305.219 571.094 304.301 571.094C303.527 571.094 302.914 570.602 302.852 569.914H301.68C301.727 571.187 302.832 572.109 304.301 572.109ZM309.737 570.906H308.612L308.573 571.344C308.483 572.402 308.233 573.469 308.128 573.953H308.956C309.144 573.441 309.558 572.27 309.679 571.332L309.737 570.906ZM311.203 570.438H314.996V572H316.148V570.438H317.207V569.414H316.148V564H314.66L311.203 569.461V570.438ZM315.004 569.414H312.469V569.352L314.941 565.437H315.004V569.414ZM321.354 572.133C323.201 572.133 324.283 570.625 324.283 568.004C324.283 565.402 323.186 563.891 321.354 563.891C319.518 563.891 318.424 565.398 318.42 568.004C318.42 570.621 319.502 572.129 321.354 572.133ZM321.354 571.09C320.271 571.09 319.619 570.004 319.619 568.004C319.623 566.012 320.275 564.914 321.354 564.914C322.428 564.914 323.084 566.012 323.084 568.004C323.084 570.004 322.432 571.09 321.354 571.09ZM328.454 572.133C330.302 572.133 331.384 570.625 331.384 568.004C331.384 565.402 330.286 563.891 328.454 563.891C326.618 563.891 325.524 565.398 325.521 568.004C325.521 570.621 326.603 572.129 328.454 572.133ZM328.454 571.09C327.372 571.09 326.72 570.004 326.72 568.004C326.724 566.012 327.376 564.914 328.454 564.914C329.528 564.914 330.185 566.012 330.185 568.004C330.185 570.004 329.532 571.09 328.454 571.09Z" fill="#41D4A8"/>
<circle cx="68" cy="567" r="25" fill="#DCFAF8"/>
<path d="M68.0001 565.128C68.3544 565.128 68.6438 565.416 68.6438 565.771C68.6438 566.094 68.9066 566.356 69.23 566.356C69.5526 566.356 69.8154 566.094 69.8154 565.771C69.8154 564.977 69.2979 564.306 68.5855 564.061V563.729C68.5855 563.406 68.3234 563.143 68.0001 563.143C67.676 563.143 67.4139 563.406 67.4139 563.729V564.061C66.7016 564.306 66.1855 564.977 66.1855 565.771C66.1855 566.773 66.9991 567.586 68.0001 567.586C68.3544 567.586 68.6438 567.876 68.6438 568.23C68.6438 568.585 68.3544 568.874 68.0001 568.874C67.6458 568.874 67.3571 568.585 67.3571 568.23C67.3571 567.907 67.0943 567.644 66.771 567.644C66.4469 567.644 66.1855 567.907 66.1855 568.23C66.1855 569.024 66.7016 569.694 67.4139 569.939V570.271C67.4139 570.595 67.676 570.858 68.0001 570.858C68.3234 570.858 68.5855 570.595 68.5855 570.271V569.939C69.2979 569.694 69.8154 569.024 69.8154 568.23C69.8154 567.229 69.0011 566.415 68.0001 566.415C67.6458 566.415 67.3571 566.126 67.3571 565.771C67.3571 565.416 67.6458 565.128 68.0001 565.128ZM72.9086 570.253C73.1957 570.405 73.5493 570.295 73.6999 570.01C74.1872 569.089 74.4441 568.048 74.4441 567C74.4441 563.448 71.5524 560.557 68.0001 560.557C64.447 560.557 61.5561 563.448 61.5561 567C61.5561 570.553 64.447 573.444 68.0001 573.444C69.0329 573.444 70.059 573.194 70.9678 572.721C71.2549 572.573 71.3664 572.218 71.2173 571.931C71.0682 571.646 70.7146 571.532 70.4266 571.682C69.6744 572.075 68.8572 572.273 68.0001 572.273C65.093 572.273 62.727 569.908 62.727 567C62.727 564.094 65.093 561.728 68.0001 561.728C70.9072 561.728 73.2732 564.094 73.2732 567C73.2732 567.859 73.0621 568.71 72.6649 569.461C72.5129 569.748 72.6221 570.102 72.9086 570.253ZM68.0001 558.212C66.3029 558.212 64.6552 558.698 63.2356 559.616C62.9632 559.791 62.8857 560.154 63.0614 560.425C63.2378 560.697 63.5988 560.774 63.8719 560.6C65.1004 559.805 66.5296 559.384 68.0001 559.384C72.1999 559.384 75.6156 562.801 75.6156 567C75.6156 571.2 72.1999 574.616 68.0001 574.616C63.8003 574.616 60.3838 571.2 60.3838 567C60.3838 565.543 60.7965 564.127 61.5783 562.905C61.7525 562.632 61.6728 562.269 61.3996 562.095C61.1272 561.921 60.7648 562.001 60.5913 562.273C59.6892 563.684 59.2123 565.32 59.2123 567C59.2123 571.846 63.1537 575.788 68.0001 575.788C72.8458 575.788 76.7879 571.846 76.7879 567C76.7879 562.155 72.8458 558.212 68.0001 558.212Z" fill="#16DBCC"/>
</g>
<defs>
<clipPath id="clip0_175_1607">
<rect width="390" height="649" fill="white" transform="translate(0 -15)"/>
</clipPath>
</defs>
</svg>
