<svg width="47" height="44" viewBox="0 0 47 44" fill="none" xmlns="http://www.w3.org/2000/svg">
<path fill-rule="evenodd" clip-rule="evenodd" d="M4.41289 17.3778C5.08227 13.6062 5.22429 9.71239 5.33403 5.93787C5.35494 5.12517 4.72483 4.43445 3.93465 4.45418C3.13826 4.41662 2.47662 5.061 2.45008 5.81636C2.34685 9.47443 2.22274 13.25 1.57488 16.8458C1.43307 17.6125 1.95473 18.3722 2.73887 18.5268C3.52245 18.6814 4.27051 18.1446 4.41289 17.3778Z" fill="black"/>
<path fill-rule="evenodd" clip-rule="evenodd" d="M20.1089 27.0684C25.5566 20.5691 30.1551 13.4005 35.7757 6.99996C36.3031 6.42701 36.2439 5.50637 35.6479 4.98589C35.0513 4.46547 34.1373 4.4976 33.6155 5.1279C27.9771 11.5302 23.3614 18.7005 17.896 25.2015C17.388 25.8305 17.4701 26.7486 18.0816 27.2676C18.6869 27.7293 19.6009 27.6974 20.1089 27.0684Z" fill="black"/>
<path fill-rule="evenodd" clip-rule="evenodd" d="M44.3825 35.8602C40.9493 36.3712 37.516 36.8819 34.0821 37.393C33.2919 37.4706 32.7493 38.2191 32.8666 39.0183C32.9845 39.8173 33.7135 40.3244 34.5044 40.2467C37.9434 39.7351 41.3819 39.2239 44.8203 38.7123C45.6049 38.5773 46.1435 37.8295 46.0216 37.0308C45.9053 36.2895 45.1666 35.7252 44.3825 35.8602Z" fill="black"/>
</svg>
