<svg width="455" height="40" viewBox="0 0 455 40" fill="none" xmlns="http://www.w3.org/2000/svg">
<path fill-rule="evenodd" clip-rule="evenodd" d="M193.243 4.06377C171.867 5.35766 150.742 6.94862 130.142 8.68795C100.98 11.1485 71.8289 13.6938 42.8538 17.724C33.733 18.9967 24.4708 19.8027 15.4071 21.3935C9.71745 22.3905 2.17313 23.8114 1.18303 24.1084C0.665173 24.2781 0.439248 24.5328 0.366245 24.6177C-0.147053 25.2116 -0.0533954 25.7841 0.236333 26.2295C0.352681 26.4204 0.64689 26.8872 1.46361 26.9509C56.0832 31.2992 111.935 22.8147 166.62 21.9238C261.455 20.3966 359.164 26.463 453.246 39.6989C454.068 39.805 454.866 39.2745 454.98 38.4897C455.117 37.7261 454.524 36.9837 453.703 36.8776C359.461 23.6206 261.592 17.5329 166.575 19.0813C115.61 19.9085 63.6389 27.3539 12.6033 24.8085C13.7759 24.5964 14.9258 24.3842 15.9752 24.1933C25.0024 22.6025 34.2258 21.8177 43.3101 20.545C72.2236 16.5149 101.315 13.9695 130.439 11.5302C166.575 8.47577 204.285 5.84554 242.292 4.61528C255.889 4.80618 269.44 4.99717 282.991 5.23049C312.306 5.73957 341.758 7.22437 371.005 9.21824C379.811 9.83336 388.616 10.4697 397.422 11.0211C400.343 11.212 407.871 11.7635 408.92 11.721C410.221 11.6786 410.472 10.6606 410.494 10.4909C410.563 10.1091 410.517 9.57874 409.878 9.13331C409.81 9.06967 409.399 8.85742 408.487 8.73016C355.309 1.22134 298.527 -0.0299288 242.338 1.77303C183.069 0.988215 123.572 0.648679 64.4534 0.288086C63.607 0.288086 62.9158 0.924519 62.909 1.70934C62.9044 2.49416 63.5864 3.13061 64.4328 3.15182C107.24 3.40636 150.263 3.66075 193.243 4.06377Z" fill="#EA580C"/>
</svg>