<svg width="120" height="120" viewBox="0 0 120 120" fill="none" xmlns="http://www.w3.org/2000/svg">
<rect width="120" height="120" rx="60" fill="#EB4335" fill-opacity="0.3"/>
<path d="M40.6634 35.7922C40.6634 35.7922 42.9613 33.494 45.2591 35.7922C46.4246 36.9579 57.7017 48.2345 57.7017 48.2345C57.7017 48.2345 59.9996 50.5327 62.2975 48.2345C64.5959 45.9363 74.7402 35.7922 74.7402 35.7922C74.7402 35.7922 77.038 33.494 79.3358 35.7922C81.6343 38.0902 83.9328 40.3885 83.9328 40.3885C83.9328 40.3885 86.2307 42.6863 83.9328 44.9845C82.7266 46.1902 73.7878 55.1287 71.49 57.4269C69.1921 59.7251 71.49 62.0231 71.49 62.0231L83.9328 74.4655C83.9328 74.4655 86.2307 76.7637 83.9328 79.0616L79.3356 83.658C79.3356 83.658 77.0378 85.9562 74.74 83.658L62.2972 71.2155C62.2972 71.2155 59.9994 68.9173 57.7015 71.2155C55.4031 73.5137 45.2589 83.658 45.2589 83.658C45.2589 83.658 42.9611 85.9562 40.6632 83.658L36.0662 79.0616C36.0662 79.0616 33.7683 76.7637 36.0662 74.4655C38.3647 72.1673 46.211 64.3213 48.5089 62.0231C50.8068 59.7251 48.5089 57.4269 48.5089 57.4269L36.0664 44.9845C36.0664 44.9845 33.7685 42.6863 36.0664 40.3885C38.3649 38.0902 40.6634 35.7922 40.6634 35.7922Z" fill="#EB4335"/>
</svg>
