<?xml version="1.0" standalone="no"?>
<!DOCTYPE svg PUBLIC "-//W3C//DTD SVG 20010904//EN"
 "http://www.w3.org/TR/2001/REC-SVG-20010904/DTD/svg10.dtd">
<svg version="1.0" xmlns="http://www.w3.org/2000/svg"
 width="2501.000000pt" height="2500.000000pt" viewBox="0 0 2501.000000 2500.000000"
 preserveAspectRatio="xMidYMid meet">

<g transform="translate(0.000000,2500.000000) scale(0.100000,-0.100000)"
fill="#000000" stroke="none">
<path d="M5 12500 c0 -6878 1 -9691 2 -6253 2 3439 2 9067 0 12505 -1 3439 -2
626 -2 -6252z"/>
<path d="M25005 12500 c0 -6878 1 -9691 2 -6253 2 3439 2 9067 0 12505 -1
3439 -2 626 -2 -6252z"/>
<path d="M7830 17462 l0 -838 1516 -1144 1516 -1145 -1516 -3 -1516 -2 0
-1579 0 -1578 1496 -2234 c823 -1229 1499 -2236 1501 -2239 3 -3 3 339 -1 760
-3 421 -9 1279 -13 1907 l-6 1143 3183 2 3183 3 -2560 1945 -2559 1945 2558 3
2558 2 0 1945 0 1945 -4670 0 -4670 0 0 -838z"/>
</g>
</svg>
